<svg width="92" height="32" viewBox="0 0 92 32" fill="none" xmlns="http://www.w3.org/2000/svg">
<g clip-path="url(#clip0_247_207)">
<path d="M22.0069 17.5395C22.2005 17.7332 22.2005 17.9353 22.0069 18.1289C20.2639 19.8719 17.8726 20.9665 15.1444 20.9665C9.51979 20.9749 5.02344 16.5038 5.02344 10.8539C5.02344 5.204 9.51979 0.699219 15.1444 0.699219C17.8726 0.699219 20.2639 1.79384 22.0069 3.53681C22.2005 3.73047 22.2005 3.93255 22.0069 4.12622L20.1544 6.12179C19.986 6.31545 19.7587 6.31545 19.565 6.14705C18.3862 5.10295 16.9211 4.46302 15.1192 4.46302C11.6922 4.46302 8.98932 7.19115 8.98932 10.8455C8.98932 14.4998 11.6922 17.2027 15.1192 17.2027C16.9211 17.2027 18.3778 16.5543 19.565 15.5187C19.7587 15.3503 19.986 15.3503 20.1544 15.5439L22.0069 17.5395Z" fill="black"/>
<path d="M36.7192 12.3444V20.192C36.7192 20.4277 36.5339 20.613 36.2982 20.613H33.4269C33.1912 20.613 33.0059 20.4277 33.0059 20.192V13.018C33.0059 10.7446 31.7681 9.95307 30.4209 9.95307C28.3411 9.95307 27.3813 12.0076 27.3813 12.6559V20.192C27.3813 20.4277 27.196 20.613 26.9602 20.613H24.089C23.8532 20.613 23.668 20.4277 23.668 20.192V1.49083C23.668 1.25507 23.8532 1.06982 24.089 1.06982H26.9602C27.196 1.06982 27.3813 1.25507 27.3813 1.49083V9.07738C28.2822 7.61228 29.7473 6.51766 31.7429 6.51766C34.5552 6.51766 36.7192 8.65637 36.7192 12.336V12.3444Z" fill="black"/>
<path d="M38.543 13.7504C38.543 9.70027 41.7174 6.52588 45.6832 6.52588C49.6491 6.52588 52.8235 9.70027 52.8235 13.7504C52.8235 17.8004 49.6491 20.9748 45.6832 20.9748C41.7174 20.9748 38.543 17.8004 38.543 13.7504ZM49.2534 13.7504C49.2534 11.5274 47.6536 9.95288 45.6832 9.95288C43.7129 9.95288 42.1131 11.5274 42.1131 13.7504C42.1131 15.9733 43.6877 17.5478 45.6832 17.5478C47.6788 17.5478 49.2534 15.9733 49.2534 13.7504Z" fill="black"/>
<path d="M54.4766 2.75373C54.4766 1.62543 55.3775 0.699219 56.5311 0.699219C57.6846 0.699219 58.5519 1.62543 58.5519 2.75373C58.5519 3.88203 57.651 4.80825 56.5311 4.80825C55.4112 4.80825 54.4766 3.88203 54.4766 2.75373ZM55.0912 6.82908H57.9625C58.2151 6.82908 58.3835 6.99749 58.3835 7.25009V20.1834C58.3835 20.436 58.2151 20.6044 57.9625 20.6044H55.0912C54.8386 20.6044 54.6702 20.436 54.6702 20.1834V7.25009C54.6702 6.99749 54.8386 6.82908 55.0912 6.82908Z" fill="black"/>
<path d="M70.2971 16.3017C70.5244 16.108 70.7181 16.108 70.9117 16.3017L72.6294 17.9352C72.7978 18.1036 72.8231 18.3309 72.6547 18.5246C71.358 20.0149 69.4466 20.9748 67.2574 20.9748C63.2915 20.9748 60.2266 17.8004 60.2266 13.7504C60.2266 9.70027 63.2915 6.52588 67.2574 6.52588C69.3961 6.52588 71.2822 7.48578 72.5705 8.97614C72.7389 9.1698 72.7136 9.39715 72.5452 9.56555L70.8275 11.2243C70.6339 11.418 70.4318 11.3927 70.2129 11.1991C69.4214 10.5002 68.613 9.9613 67.3416 9.9613C65.2618 9.9613 63.7967 11.5948 63.7967 13.7588C63.7967 15.9228 65.2618 17.5563 67.3416 17.5563C68.6635 17.5563 69.5056 17.0258 70.2971 16.3185V16.3017Z" fill="black"/>
<path d="M86.0012 15.0977H77.1685C77.5306 16.9249 78.9367 17.969 81.1091 17.969C82.2037 17.969 83.0794 17.6911 84.0309 17.0091C84.2835 16.8407 84.4519 16.8407 84.6456 17.0343L85.8833 18.2468C86.077 18.4405 86.077 18.6426 85.8581 18.8615C84.5361 20.1835 82.7342 20.9665 80.7386 20.9665C76.4359 20.9665 73.4805 17.7921 73.4805 13.7421C73.4805 9.69197 76.4359 6.51758 80.4271 6.51758C84.4182 6.51758 86.978 9.69197 86.978 13.4389C86.978 14.5336 86.8348 15.0977 85.9928 15.0977H86.0012ZM77.1095 12.6811H83.6857C83.4331 10.7445 82.1111 9.67513 80.4523 9.67513C78.7936 9.67513 77.4127 10.7445 77.1095 12.6811Z" fill="black"/>
<path d="M27.2712 24.865V25.3028C27.2712 25.3702 27.2207 25.4207 27.1533 25.4207H25.9072V30.1696C25.9072 30.237 25.8566 30.2875 25.7893 30.2875H25.2925C25.2251 30.2875 25.1746 30.237 25.1746 30.1696V25.4207H23.9284C23.8611 25.4207 23.8105 25.3702 23.8105 25.3028V24.865C23.8105 24.7976 23.8611 24.7471 23.9284 24.7471H27.1533C27.2207 24.7471 27.2712 24.7976 27.2712 24.865Z" fill="black"/>
<path d="M31.2528 27.8882V30.1701C31.2528 30.2374 31.2023 30.2879 31.1349 30.2879H30.6634C30.5961 30.2879 30.5455 30.2374 30.5455 30.1701V27.9724C30.5455 27.2988 30.2087 26.9704 29.6951 26.9704C28.971 26.9704 28.5921 27.6861 28.5921 27.8461V30.1701C28.5921 30.2374 28.5415 30.2879 28.4742 30.2879H28.0026C27.9353 30.2879 27.8848 30.2374 27.8848 30.1701V24.6296C27.8848 24.5622 27.9353 24.5117 28.0026 24.5117H28.4742C28.5415 24.5117 28.5921 24.5622 28.5921 24.6296V27.063C28.8699 26.6504 29.2994 26.3305 29.8803 26.3305C30.6887 26.3305 31.2528 26.8609 31.2528 27.8966V27.8882Z" fill="black"/>
<path d="M35.6467 28.2246C35.6467 28.5025 35.6131 28.6372 35.411 28.6372H32.6071C32.7081 29.3192 33.1965 29.7908 33.9711 29.7908C34.409 29.7908 34.7037 29.6392 34.9647 29.4371C35.0237 29.3866 35.0658 29.3698 35.1331 29.4371L35.3352 29.6308C35.3941 29.6981 35.4026 29.7487 35.3352 29.816C34.9731 30.1949 34.4679 30.4054 33.8869 30.4054C32.725 30.4054 31.9082 29.5129 31.9082 28.3678C31.9082 27.2226 32.6997 26.3301 33.8196 26.3301C34.9395 26.3301 35.6383 27.2226 35.6383 28.233L35.6467 28.2246ZM32.6071 28.1151H35.0237C34.9816 27.4331 34.4932 26.9363 33.828 26.9363C33.1628 26.9363 32.6913 27.4163 32.6071 28.1151Z" fill="black"/>
<path d="M38.6873 29.3275C38.8894 29.4959 39.1504 29.6559 39.563 29.6559C40.2029 29.6559 40.5987 29.218 40.5987 28.2497V24.8733C40.5987 24.8059 40.6492 24.7554 40.7165 24.7554H41.2133C41.2807 24.7554 41.3312 24.8059 41.3312 24.8733V28.275C41.3312 29.7401 40.6408 30.3632 39.5714 30.3632C38.9651 30.3632 38.502 30.1443 38.241 29.8411C38.1905 29.7822 38.1905 29.7317 38.241 29.6727L38.5105 29.3359C38.561 29.277 38.6199 29.277 38.6873 29.3359V29.3275Z" fill="black"/>
<path d="M42.0723 28.3595C42.0723 27.2143 42.9311 26.3218 44.0426 26.3218C45.154 26.3218 46.0213 27.2059 46.0213 28.3595C46.0213 29.513 45.1625 30.3971 44.0426 30.3971C42.9227 30.3971 42.0723 29.513 42.0723 28.3595ZM45.3393 28.3595C45.3393 27.5511 44.7751 26.9785 44.051 26.9785C43.3269 26.9785 42.7627 27.5595 42.7627 28.3595C42.7627 29.1594 43.3353 29.7404 44.051 29.7404C44.7667 29.7404 45.3393 29.1594 45.3393 28.3595Z" fill="black"/>
<path d="M49.8772 26.5406L47.8311 31.6937C47.8058 31.7611 47.7553 31.7863 47.6879 31.7863H47.2164C47.1322 31.7863 47.0817 31.7358 47.1238 31.6516L47.6711 30.296L46.1807 26.5322C46.1471 26.448 46.1807 26.3975 46.2734 26.3975H46.7533C46.8207 26.3975 46.8712 26.4311 46.8964 26.4901L48.0163 29.454L49.1362 26.4901C49.1615 26.4227 49.212 26.3975 49.2793 26.3975H49.7677C49.8519 26.3975 49.894 26.448 49.8603 26.5322L49.8772 26.5406Z" fill="black"/>
<path d="M51.9414 28.3595C51.9414 27.2143 52.8003 26.3218 53.9117 26.3218C55.0232 26.3218 55.8905 27.2059 55.8905 28.3595C55.8905 29.513 55.0316 30.3971 53.9117 30.3971C52.7918 30.3971 51.9414 29.513 51.9414 28.3595ZM55.2 28.3595C55.2 27.5511 54.6359 26.9785 53.9117 26.9785C53.1876 26.9785 52.6234 27.5595 52.6234 28.3595C52.6234 29.1594 53.196 29.7404 53.9117 29.7404C54.6274 29.7404 55.2 29.1594 55.2 28.3595Z" fill="black"/>
<path d="M59.0561 25.0419L58.7951 25.2945C58.7446 25.3451 58.7277 25.3366 58.6941 25.3114C58.5004 25.1935 58.3404 25.1009 58.1046 25.1009C57.6921 25.1009 57.591 25.303 57.591 25.6398V26.4144H58.3657C58.433 26.4144 58.4836 26.4649 58.4836 26.5323V26.8859C58.4836 26.9533 58.433 27.0038 58.3657 27.0038H57.591V30.1698C57.591 30.2372 57.5405 30.2877 57.4731 30.2877H57.0016C56.9342 30.2877 56.8837 30.2372 56.8837 30.1698V27.0038H56.4206C56.3533 27.0038 56.3027 26.9533 56.3027 26.8859V26.5323C56.3027 26.4649 56.3533 26.4144 56.4206 26.4144H56.8837V25.5808C56.8837 24.8483 57.2795 24.4609 58.0541 24.4609C58.5088 24.4609 58.8625 24.6883 59.0645 24.9325C59.0982 24.9746 59.0898 24.9998 59.0645 25.0335L59.0561 25.0419Z" fill="black"/>
<path d="M64.4695 29.7318V30.1696C64.4695 30.237 64.419 30.2875 64.3516 30.2875H61.573C61.5056 30.2875 61.4551 30.237 61.4551 30.1696V24.865C61.4551 24.7976 61.5056 24.7471 61.573 24.7471H64.3432C64.4105 24.7471 64.4611 24.7976 64.4611 24.865V25.3028C64.4611 25.3702 64.4105 25.4207 64.3432 25.4207H62.1876V27.0374H64.2169C64.2843 27.0374 64.3348 27.0879 64.3348 27.1552V27.5931C64.3348 27.6604 64.2843 27.711 64.2169 27.711H62.1876V29.6223H64.3516C64.419 29.6223 64.4695 29.6729 64.4695 29.7402V29.7318Z" fill="black"/>
<path d="M69.0423 26.524V30.1615C69.0423 30.2288 68.9918 30.2794 68.9244 30.2794H68.4866C68.4192 30.2794 68.3771 30.2288 68.3687 30.1615L68.335 29.7236C68.0319 30.111 67.5941 30.372 67.0215 30.372C65.9184 30.372 65.127 29.4795 65.127 28.3427C65.127 27.206 65.9184 26.3135 67.0215 26.3135C67.5941 26.3135 68.0403 26.5829 68.3434 26.9702L68.3687 26.5071C68.3687 26.4398 68.4192 26.3893 68.4866 26.3893H68.9244C68.9918 26.3893 69.0423 26.4398 69.0423 26.5071V26.524ZM68.3603 28.3512C68.3603 27.6018 67.8214 26.9702 67.0973 26.9702C66.3731 26.9702 65.8174 27.5597 65.8174 28.3512C65.8174 29.1426 66.3647 29.7405 67.0973 29.7405C67.8298 29.7405 68.3603 29.109 68.3603 28.3512Z" fill="black"/>
<path d="M71.9972 26.5998L71.8457 26.9534C71.812 27.0208 71.7699 27.0292 71.6857 27.0208C71.6183 27.0039 71.5341 26.9702 71.3741 26.9702C70.8942 26.9702 70.5237 27.3323 70.5237 27.8291V30.1615C70.5237 30.2288 70.4732 30.2794 70.4058 30.2794H69.9343C69.8669 30.2794 69.8164 30.2288 69.8164 30.1615V26.524C69.8164 26.4566 69.8669 26.4061 69.9343 26.4061H70.3721C70.4395 26.4061 70.4816 26.4566 70.49 26.524L70.5237 26.8776C70.7342 26.5492 71.0542 26.3135 71.492 26.3135C71.6941 26.3135 71.8625 26.3724 71.972 26.4566C72.0225 26.4903 72.0309 26.524 71.9972 26.5913V26.5998Z" fill="black"/>
<path d="M75.8036 27.8878V30.1697C75.8036 30.237 75.7531 30.2875 75.6857 30.2875H75.2142C75.1468 30.2875 75.0963 30.237 75.0963 30.1697V27.972C75.0963 27.2984 74.7595 26.97 74.2459 26.97C73.5217 26.97 73.1428 27.6857 73.1428 27.8457V30.1697C73.1428 30.237 73.0923 30.2875 73.025 30.2875H72.5534C72.4861 30.2875 72.4355 30.237 72.4355 30.1697V26.5322C72.4355 26.4648 72.4861 26.4143 72.5534 26.4143H72.9997C73.0671 26.4143 73.1092 26.4648 73.1176 26.5322L73.1513 27.0626C73.4291 26.65 73.8586 26.3301 74.4395 26.3301C75.2479 26.3301 75.812 26.8605 75.812 27.8962L75.8036 27.8878Z" fill="black"/>
<path d="M76.502 25.1009C76.502 24.8567 76.6956 24.6631 76.9398 24.6631C77.184 24.6631 77.3692 24.8567 77.3692 25.1009C77.3692 25.3451 77.1756 25.5304 76.9398 25.5304C76.704 25.5304 76.502 25.3367 76.502 25.1009ZM76.6956 26.4061H77.1671C77.2345 26.4061 77.285 26.4566 77.285 26.5239V30.1614C77.285 30.2288 77.2345 30.2793 77.1671 30.2793H76.6956C76.6283 30.2793 76.5777 30.2288 76.5777 30.1614V26.5239C76.5777 26.4566 76.6283 26.4061 76.6956 26.4061Z" fill="black"/>
<path d="M81.4364 27.8878V30.1697C81.4364 30.237 81.3859 30.2875 81.3185 30.2875H80.847C80.7796 30.2875 80.7291 30.237 80.7291 30.1697V27.972C80.7291 27.2984 80.3923 26.97 79.8787 26.97C79.1546 26.97 78.7756 27.6857 78.7756 27.8457V30.1697C78.7756 30.237 78.7251 30.2875 78.6578 30.2875H78.1862C78.1189 30.2875 78.0684 30.237 78.0684 30.1697V26.5322C78.0684 26.4648 78.1189 26.4143 78.1862 26.4143H78.6325C78.6999 26.4143 78.742 26.4648 78.7504 26.5322L78.7841 27.0626C79.0619 26.65 79.4914 26.3301 80.0724 26.3301C80.8807 26.3301 81.4448 26.8605 81.4448 27.8962L81.4364 27.8878Z" fill="black"/>
<path d="M86.0085 26.5239V30.2119C86.0085 31.4244 84.9139 31.8538 84.0214 31.8538C83.4067 31.8538 82.8678 31.6938 82.4973 31.4496C82.4299 31.4075 82.4299 31.3486 82.4552 31.2812L82.6068 31.0034C82.6489 30.936 82.6994 30.9276 82.7668 30.9529C83.0951 31.1297 83.4656 31.2391 83.9793 31.2391C84.6023 31.2391 85.3349 30.9697 85.3349 30.2035V29.6225C85.0318 30.0182 84.5939 30.2961 83.9961 30.2961C82.8931 30.2961 82.1016 29.4035 82.1016 28.3089C82.1016 27.2143 82.8931 26.3218 83.9961 26.3218C84.5687 26.3218 85.0149 26.5828 85.3181 26.9701L85.3433 26.5154C85.3433 26.4481 85.3938 26.3976 85.4612 26.3976H85.899C85.9664 26.3976 86.0169 26.4481 86.0169 26.5154L86.0085 26.5239ZM85.3265 28.3089C85.3265 27.5932 84.7876 26.9701 84.0635 26.9701C83.3393 26.9701 82.7836 27.5595 82.7836 28.3089C82.7836 29.0583 83.3309 29.6562 84.0635 29.6562C84.796 29.6562 85.3265 29.0246 85.3265 28.3089Z" fill="black"/>
</g>
<defs>
<clipPath id="clip0_247_207">
<rect width="81.9532" height="31.1545" fill="white" transform="translate(5.02344 0.699219)"/>
</clipPath>
</defs>
</svg>
