<svg width="98" height="32" viewBox="0 0 98 32" fill="none" xmlns="http://www.w3.org/2000/svg">
<path d="M28.1963 6.51904L28.6299 7.1167C28.5669 7.22097 28.5292 7.17684 28.4561 7.18115C27.8606 7.22027 27.418 7.19853 26.8262 7.37744C24.9871 7.93161 23.4554 9.62135 23.2207 11.5474C24.0211 11.6538 24.7922 11.8152 25.5527 12.0825C25.6157 12.0652 25.8988 11.4359 25.9775 11.3101C26.6497 10.2395 27.7436 9.60477 28.9453 9.27881C29.0661 9.24609 29.6711 9.09304 29.7344 9.10791C29.8929 9.14699 30.0653 9.64205 30.0439 9.80615C28.9221 9.88437 27.6313 10.3749 26.8945 11.2476C26.746 11.4236 26.2195 12.1918 26.2383 12.3853C26.2528 12.5315 26.8636 12.8812 27.0264 13.0132C27.1789 13.1375 27.7385 13.7094 27.8174 13.7466C27.9882 13.824 28.1341 13.6242 28.2832 13.561C28.5766 13.4379 28.7707 13.4248 29.0771 13.5161C29.3093 13.5853 30.0162 14.0341 29.9814 14.2759C29.5968 14.8655 29.0395 15.2776 28.3145 15.0386C27.7627 14.8567 27.4792 14.355 27.083 13.9878C25.9936 12.9797 24.6592 12.2892 23.1426 12.3052C23.0542 15.6966 26.3909 18.2622 29.6592 17.4097C29.5775 16.6305 29.8624 16.0949 30.6025 15.8276C30.89 15.7241 31.0836 15.6154 31.2256 15.9312C31.4008 16.321 31.557 17.2675 31.167 17.5327C30.1009 18.2555 28.2115 18.3753 26.9902 18.103C24.3478 17.5141 22.3771 15.021 22.4365 12.3062C19.6196 12.32 17.6572 14.9921 17.3848 17.604C17.3283 18.1487 17.3758 18.6943 17.3867 19.231C17.3925 19.5249 17.3291 20.628 17.5156 20.7876C17.6286 20.8789 17.7608 20.7803 17.8984 20.7788C19.3138 20.7607 20.6949 20.9816 21.9307 21.6958C22.7765 22.1847 23.3688 22.9512 24.2363 23.4097C24.5167 23.5582 25.4501 23.9434 25.7275 23.9282C25.8826 23.919 26.2352 23.2838 26.375 23.1177C26.8864 22.5099 28.2348 21.5972 29.0381 21.5972H30.3691C30.2584 21.9636 30.2798 22.261 29.8525 22.3022C29.5911 22.3276 29.3029 22.2753 29.043 22.3071C28.1687 22.4158 27.2017 23.1755 26.6758 23.8521C26.6363 24.0306 27.0242 23.991 27.1367 23.9858C27.9415 23.9525 28.7201 23.6586 29.501 23.4985C29.5318 23.535 29.0954 24.2697 29.041 24.3149C28.8694 24.4554 27.5272 24.6649 27.2393 24.686C26.3128 24.7556 25.2329 24.6042 24.373 24.2515C23.0348 23.7024 22.2727 22.5498 20.9365 21.9849C20.8315 21.9407 20.3714 21.7106 20.3721 21.896C20.3735 22.5363 20.9968 23.0198 21.4531 23.3696L21.1543 23.9253C20.1685 23.5494 19.7491 22.6023 19.5586 21.6245C19.3877 21.4768 17.6855 21.4334 17.6055 21.5454C17.8612 22.8623 18.4909 24.1532 19.5332 25.0181C19.699 25.1556 20.3713 25.635 20.5391 25.6978C20.6296 25.7311 20.6722 25.7351 20.7686 25.7163C21.0141 25.667 21.4743 25.4079 21.7871 25.3188C23.3082 24.8879 24.6215 24.9938 26.0361 25.687C26.3425 25.8369 26.9778 26.1885 27.2148 26.4087C27.2597 26.4507 27.3386 26.4805 27.3242 26.5601C27.2098 26.6709 27.0189 27.0459 26.835 27.0054C26.7285 26.9822 26.1822 26.573 26.0068 26.478C24.8348 25.8442 23.8684 25.6057 22.5342 25.8491C22.3714 25.879 21.6028 26.0657 21.5166 26.1353C21.4429 26.1953 21.4388 26.2475 21.4873 26.3257C21.5261 26.3853 22.1149 26.7316 22.2393 26.8228C22.8803 27.2921 23.6148 27.8587 24.1211 28.4722C24.2247 28.5975 24.4836 28.9074 24.4521 29.0581C24.4449 29.0914 23.9522 29.4131 23.8594 29.3589C23.7851 29.0189 22.3463 27.6385 22.1455 27.686C21.5863 28.5567 21.2449 29.5905 21.2891 30.6343C21.2525 30.7523 20.6747 30.9162 20.6465 30.8872C20.5053 30.1014 20.6754 29.2392 20.9463 28.4976C21.1042 28.0645 21.3842 27.6671 21.5088 27.2319C21.4784 27.1095 19.6084 25.888 19.4766 25.8901C19.1825 25.8967 18.796 27.0163 18.8301 27.3052C18.5723 27.3754 18.1316 27.4858 18.1465 27.1147C18.1704 26.5135 18.4862 25.8607 18.8955 25.4282C18.902 25.3471 18.4023 24.8867 18.3125 24.7729C18.2034 24.6367 17.7381 23.8971 17.6787 23.8862C16.8213 24.3353 16.1202 25.0684 15.501 25.8071C15.4853 25.9175 16.0569 26.2541 16.1865 26.3569C17.8605 27.6796 18.6768 29.1635 19.0137 31.2866C18.9702 31.4199 18.3756 31.5008 18.3213 31.4204C18.0301 29.5365 17.2951 28.0885 15.7842 26.9224C15.6924 26.8515 15.1937 26.4864 15.1318 26.4849C14.9748 26.4834 14.692 27.2811 14.6309 27.4507C14.3093 28.3379 14.119 29.2698 14.0205 30.2085V31.6479H13.8564L13.8535 31.646L13.3701 31.5317C13.1564 30.1251 13.5098 28.6979 13.9082 27.355C13.2962 27.2543 13.0516 27.4768 12.6309 27.8433L12.0605 27.7339C12.1196 27.0888 13.0148 26.6003 13.6123 26.5923C13.7847 26.5901 14.0235 26.7161 14.1807 26.6206C14.2364 26.5866 14.7056 25.6742 14.8418 25.4888C15.5169 24.5667 16.4256 23.873 17.3252 23.187C17.2006 22.6171 16.9661 22.0745 16.8574 21.4995C16.6481 20.3906 16.6094 18.8931 16.6768 17.7632C16.8607 14.6825 19.1917 11.6643 22.4404 11.5737C22.5874 11.1283 22.664 10.6666 22.832 10.2271C23.6456 8.1012 25.8792 6.42488 28.1963 6.51904ZM4.80176 13.6069C5.94257 11.476 8.45398 10.9142 10.6074 11.8296C14.7884 13.6079 15.4623 19.7868 13.9883 23.5513C13.3233 25.2482 12.2282 26.0587 10.873 27.1763C10.8429 27.2904 11.0796 27.9158 11.1211 28.103C11.2573 28.7273 11.2929 29.512 11.2451 30.1509C11.2379 30.2507 11.134 30.9007 11.1113 30.9409C11.0519 31.0409 10.4559 30.8142 10.4385 30.7446C10.5789 29.8697 10.6307 28.7935 10.3613 27.939C10.336 27.8586 10.3115 27.7853 10.2393 27.7339C10.1394 27.7114 9.01028 28.8373 8.85352 29.0093C8.7384 29.136 8.3789 29.675 8.31055 29.7183C8.15563 29.8153 7.65458 29.5162 7.66406 29.4009C8.28693 28.4912 9.11234 27.7255 9.93945 27.0005C10.9224 26.1392 12.1442 25.4272 12.8135 24.2827C12.021 23.7518 10.9508 23.6386 10.083 24.0464C9.82935 24.1661 9.14804 24.7785 9.08789 24.7944C8.96552 24.8263 8.54889 24.4237 8.60645 24.312C8.80419 23.9281 9.90779 23.3203 10.333 23.2095C11.3341 22.9487 12.2531 23.1882 13.165 23.6011C13.3513 23.5463 13.7916 21.8841 13.7979 21.5962H13.7988C11.8735 21.5426 9.97772 22.0076 8.50293 23.2817C7.8445 23.8511 7.34903 24.6021 6.5957 25.0679C6.53561 25.1193 6.51253 25.1777 6.51758 25.2573C6.53062 25.4688 6.87256 26.0925 6.93848 26.4185C7.10794 27.252 6.94323 27.912 6.57031 28.6558C6.48494 28.7158 5.98709 28.3722 5.9873 28.2437C5.98875 28.1452 6.25611 27.64 6.28809 27.4233C6.3786 26.8035 6.16471 26.0813 5.8418 25.5562L5.75488 25.5308C5.44124 25.6409 5.12013 25.758 4.79199 25.8188C4.5921 25.8559 3.81934 25.9659 3.66992 25.9429C3.52091 25.9197 3.03601 25.2956 3.09668 25.2368C4.37008 25.2593 5.61279 25.06 6.59863 24.2017C7.12307 23.7453 6.95832 23.7525 6.45996 23.3657C4.95479 22.1982 3.2565 21.9099 1.39062 22.2358C1.25458 22.2106 1.13953 21.7611 1.08887 21.6265C1.10722 21.5443 1.4157 21.5041 1.5 21.4946C3.63903 21.2498 5.09534 21.5191 6.83887 22.77C6.9757 22.8678 7.40774 23.2918 7.51562 23.272C9.12442 21.477 11.5052 20.8558 13.8564 20.8667C13.9905 20.7711 13.9747 19.1218 13.9609 18.853C13.8327 16.2875 12.821 13.4833 10.2656 12.4438C8.46925 11.713 6.03379 12.1957 5.33691 14.1948C5.20146 14.5831 5.10362 15.4769 5.37598 15.813C5.49765 15.9636 5.58952 15.8146 5.73438 15.7856C6.26664 15.68 6.61237 15.7468 7.00781 16.1372C7.54865 16.6702 7.45827 16.9187 6.78906 17.2222C5.60637 17.7584 4.63078 16.4873 4.51562 15.4233C4.48383 15.1278 4.58576 14.4489 4.43164 14.2583C4.28967 14.083 3.70878 13.6954 3.49219 13.5679C2.50566 12.987 1.50981 12.8886 0.379883 13.0132L0.514648 12.3599C1.58667 12.0789 2.89072 12.4069 3.83887 12.9487C4.18142 13.1443 4.46427 13.4251 4.80176 13.6069ZM28.8438 27.9282C29.6326 27.9282 30.2725 28.5681 30.2725 29.3569C30.2723 30.1456 29.6324 30.7847 28.8438 30.7847C28.0551 30.7846 27.4162 30.1455 27.416 29.3569C27.416 28.5682 28.055 27.9283 28.8438 27.9282ZM28.8438 28.2339C28.2275 28.234 27.7286 28.7329 27.7285 29.3491C27.7285 29.9655 28.2274 30.4642 28.8438 30.4644C29.4602 30.4644 29.959 29.9655 29.959 29.3491C29.9589 28.7335 29.4601 28.2339 28.8438 28.2339ZM28.3076 28.7407C28.3496 28.6038 29.2235 28.6206 29.3662 28.769C29.6554 29.0702 29.2413 29.3555 29.2393 29.3921C29.2393 29.4631 29.7033 30.0199 29.3662 30.0737C28.9569 30.1389 29.2377 29.3576 28.6328 29.5278L28.6094 30.02L28.3076 30.0708V28.7407ZM50.7764 23.0083C52.1099 23.0083 53.1904 24.0889 53.1904 25.4224C53.1904 26.7559 52.1099 27.8364 50.7764 27.8364C49.4429 27.8363 48.3623 26.7558 48.3623 25.4224C48.3624 24.089 49.443 23.0084 50.7764 23.0083ZM77.7256 23.0054C79.0584 23.0054 80.1396 24.0866 80.1396 25.4194C80.1394 26.7521 79.0583 27.8325 77.7256 27.8325C76.393 27.8324 75.3127 26.752 75.3125 25.4194C75.3125 24.0867 76.3929 23.0055 77.7256 23.0054ZM61.4961 26.0229C61.4963 26.0531 61.6011 26.3294 61.6279 26.3794C61.9003 26.8951 62.6272 27.0379 63.0908 26.6938C63.1755 26.6309 63.4516 26.2532 63.4521 26.186V23.1157H64.4297V26.2397C64.4294 26.3762 64.2472 26.7671 64.1689 26.9019C63.4627 28.1057 61.3654 28.1155 60.7148 26.8589C60.683 26.7973 60.5186 26.4275 60.5186 26.4028V23.1157H61.4961V26.0229ZM44.4258 23.0757C45.0805 22.9866 45.904 23.1121 46.3438 23.6313C46.3438 23.6762 45.9095 24.1835 45.8682 24.1968C45.7046 24.2445 45.4741 23.9972 45.2852 23.9282C44.9577 23.8094 44.3716 23.7881 44.2441 24.2017C44.0913 24.6957 45.2054 24.9815 45.5205 25.1597C46.9731 25.9797 46.5338 27.6565 44.9541 27.7876C44.3001 27.8418 43.43 27.6455 43.0244 27.1089C43.1027 26.9633 43.3883 26.5509 43.5469 26.5356C43.6433 26.5272 44.0221 26.8167 44.1855 26.8745C44.6397 27.0352 45.4604 27.096 45.3613 26.4067C45.294 25.9389 44.1197 25.667 43.7393 25.3657C42.7673 24.5951 43.2558 23.2346 44.4268 23.0757H44.4258ZM89.9014 23.0757C90.4045 22.9977 90.9905 23.0697 91.4473 23.2954C91.5239 23.3337 91.8502 23.5307 91.8672 23.5854C91.8925 23.668 91.4561 24.1794 91.3975 24.1968C91.2237 24.2473 91.0793 24.0458 90.9287 23.9771C90.6955 23.8699 90.3204 23.8266 90.0742 23.9019C89.7874 23.9888 89.7124 24.3606 89.8906 24.5815C90.0913 24.8299 91.0135 25.0927 91.377 25.3765C92.4596 26.2233 91.8523 27.6436 90.5869 27.7827C90.0336 27.8435 89.0333 27.6739 88.6377 27.2476C88.4436 27.0383 88.8817 26.6598 89.0752 26.5366C89.2853 26.6018 89.4308 26.7505 89.6445 26.8374C90.101 27.0242 90.9956 27.1377 90.8906 26.4077C90.823 25.9436 89.6525 25.6643 89.2686 25.3667C88.3291 24.6373 88.7786 23.2503 89.9014 23.0757ZM56.3877 23.1987V26.812L56.3887 26.811L58.5615 26.8374C58.7252 26.9171 58.719 27.6023 58.5879 27.7349H55.4375L55.3564 27.6538V23.1987L55.4375 23.1177H56.3066L56.3877 23.1987ZM70.0049 23.1177C70.1592 23.1963 70.0764 23.9858 70.0322 23.9868H68.7275L68.6729 27.7349H67.75L67.6953 23.9868H66.3916C66.3373 23.7298 66.2578 23.3379 66.4189 23.1177H70.0049ZM73.0684 27.7349H72.0312V23.1177H73.0684V27.7349ZM83.3662 23.1167C84.0775 24.0308 84.6803 25.0714 85.3887 25.9819C85.4231 26.0268 85.3862 26.0799 85.5127 26.0503V23.1167H86.4902V27.6528L86.4092 27.7339H85.54L83.4473 24.7466C83.3772 24.7323 83.3099 24.7671 83.291 24.8364C83.2867 24.8516 83.2852 25.0927 83.2852 25.1528V27.7329H82.3623C82.379 27.6794 82.3076 27.6152 82.3076 27.5972V23.1968L82.3887 23.1157H83.3662V23.1167ZM77.7305 23.9663C76.9273 23.9665 76.2764 24.6182 76.2764 25.4214C76.2765 26.2245 76.9274 26.8753 77.7305 26.8755C78.5337 26.8755 79.1854 26.2246 79.1855 25.4214C79.1855 24.6181 78.5338 23.9663 77.7305 23.9663ZM50.7812 23.9673C49.9779 23.9673 49.3271 24.6181 49.3271 25.4214C49.3273 26.2245 49.9781 26.8745 50.7812 26.8745C51.5843 26.8744 52.2342 26.2244 52.2344 25.4214C52.2344 24.6189 51.5844 23.9674 50.7812 23.9673ZM26.5088 19.6714C26.1633 18.9818 26.7557 18.3434 27.4814 18.5063C27.7045 19.2213 27.2455 19.7496 26.5088 19.6714ZM28.4004 18.5688C29.0248 18.4718 29.415 18.8638 29.3672 19.481C28.7182 19.8256 27.932 19.3767 28.1406 18.6343C28.2246 18.6075 28.3128 18.5819 28.4004 18.5688ZM25.0889 17.9487C25.2927 17.8979 25.7342 18.2393 25.8164 18.4058C25.954 18.6861 25.876 19.1412 25.6602 19.3628C25.1531 19.2896 24.8148 18.9567 24.8857 18.4214C24.8955 18.3518 25.026 17.9818 25.0518 17.9644L25.0889 17.9487ZM29.8359 19.2515C29.5875 18.5345 30.1585 17.8912 30.8906 18.1147C30.9688 18.4015 30.908 18.876 30.6807 19.0796C30.5011 19.2403 30.07 19.2897 29.8359 19.2515ZM73.0107 4.13721C77.0918 4.13721 80.4004 7.44583 80.4004 11.5269C80.4003 15.6078 77.0917 18.9155 73.0107 18.9155C68.9298 18.9155 65.6222 15.6078 65.6221 11.5269C65.6221 7.44586 68.9297 4.13724 73.0107 4.13721ZM22.873 16.5679C22.9585 16.5259 23.532 16.7122 23.6533 16.7681C24.4907 17.1534 24.4558 18.0048 24.1689 18.7632C23.6315 18.8006 22.7492 18.3946 22.6592 17.8169C22.6215 17.5751 22.6279 16.6889 22.873 16.5679ZM95.6738 15.1567L95.8359 15.2397V5.21631C95.8359 5.13663 95.3993 4.7004 95.3232 4.5874C95.2863 4.53238 95.2036 4.44916 95.291 4.3999L97.4111 4.42822V18.6626H97.4102C96.7069 18.5939 95.8348 18.7536 95.1533 18.6646C95.0578 18.6522 94.9973 18.6379 94.9365 18.5562C92.2687 15.1198 89.9114 11.4286 87.2422 7.99658C87.1437 7.86989 87.0371 7.64466 86.8721 7.63428V18.5806L86.791 18.6616H85.4326L85.3516 18.5806V5.37939L84.6172 4.48291L84.6719 4.37451H87.8232L95.6738 15.1567ZM62.5029 4.37451C62.5125 4.37465 62.6387 4.5011 62.6387 4.51123V6.49365L62.6377 6.49268C62.5515 6.50861 62.5127 6.48365 62.4453 6.44092C62.2013 6.28595 61.9156 5.97857 61.6875 5.78662H58.3467C58.3637 5.83999 58.2925 5.90403 58.292 5.92236V18.6626H55.9834L55.9014 18.5815V5.78662H52.5615C52.4876 5.78662 51.8081 6.51223 51.6104 6.49268V4.45557L51.6914 4.37451H62.5029ZM47.8887 4.37354C47.9068 4.37354 47.9718 4.44561 48.0254 4.42822V6.49268C47.6371 6.40358 47.3593 5.99017 47.0195 5.78662H40.5283V10.4858L40.6094 10.5679H46.123V11.8716H40.5273V17.2231L40.6084 17.3042H47.0186C47.1359 17.3042 47.7789 16.5474 48.0244 16.5981V18.5806L47.9434 18.6616H38.1367V5.43311L37.4033 4.48096L37.458 4.37354H47.8887ZM0.47168 17.1997C1.21777 17.3062 1.37928 17.9788 1.01855 18.5923H1.01758C0.868048 18.7682 0.302546 18.315 0.242188 18.1216C0.151643 17.8311 0.254373 17.4098 0.47168 17.1997ZM3.78906 15.8999C4.06359 15.8231 4.4608 16.5377 4.53613 16.7622C4.72001 17.3103 4.49024 17.7766 4.07617 18.146C3.7647 18.4241 3.69322 18.4964 3.39551 18.1733C3.17459 17.9343 2.91451 17.4421 2.93262 17.1147C2.95166 16.7641 3.45231 15.9938 3.78906 15.8989V15.8999ZM18.5547 15.6353C19.739 16.0713 20.0401 17.1796 19.1455 18.1118C17.939 17.6916 17.6045 16.545 18.5547 15.6353ZM21.8975 16.5659C22.2516 17.259 21.8155 17.9725 21.0371 17.8374C20.8053 17.1268 21.1369 16.5666 21.8975 16.5659ZM8.07617 16.3872C8.38464 16.2837 8.96312 16.6263 9.01562 16.9536C9.03807 17.0934 9.04622 17.5838 8.91309 17.6587C8.54009 17.6384 8.04314 17.4922 7.98438 17.062C7.96773 16.9382 7.94678 16.4312 8.07617 16.3872ZM12.5332 15.9507C13.2557 16.179 13.4283 16.9497 12.8418 17.4624C12.1225 17.1676 11.966 16.4983 12.5332 15.9507ZM2.38379 15.9536C2.84697 16.4996 2.75507 17.2139 2.04492 17.4595C1.44444 16.9408 1.63553 16.1333 2.38379 15.9536ZM72.4961 5.65479C66.444 6.14499 66.5403 16.9436 72.4473 17.4106C75.2614 17.633 77.2234 16.097 77.8145 13.3813C78.619 9.68297 77.1382 5.52931 72.7881 5.63916L72.4961 5.65479ZM10.0293 15.6812C10.771 15.9477 10.8771 16.6397 10.3418 17.1909C9.60828 16.959 9.45134 16.1939 10.0293 15.6812ZM26.6855 16.564C26.9275 15.7838 27.3722 15.2307 28.2646 15.3618C28.3845 15.3797 29.0188 15.6204 29.0557 15.6841L29.0547 15.6851C29.1941 15.9264 28.7129 16.5717 28.5225 16.7339C28.0031 17.1755 27.1462 17.0159 26.6855 16.564ZM21.1855 15.4058C21.4034 16.2023 21.0696 16.6408 20.2686 16.7046C19.9267 15.9556 20.3772 15.3355 21.1855 15.4058ZM11.4492 13.8892C11.723 13.8348 12.1725 14.5153 12.25 14.7515C12.3672 15.1062 12.3174 15.3976 12.1387 15.7241C12.0655 15.8581 11.6199 16.3703 11.4873 16.3833C11.1729 16.4128 10.6515 15.4698 10.6436 15.1577C10.6352 14.8049 11.0957 13.9606 11.4482 13.8892H11.4492ZM0 15.2397C0.812004 15.0159 1.28115 15.5139 1.14062 16.3267C0.591735 16.3882 0.261447 16.2781 0 15.7827V15.2397ZM22.3115 14.7583C22.9503 15.1502 22.9019 16.0086 22.1943 16.2759C21.5911 15.8471 21.6643 15.101 22.3115 14.7583ZM25.2471 15.1431C25.856 15.0419 26.2314 15.4065 26.2705 15.9995C25.5998 16.3943 25.0065 16.0718 24.8877 15.3257C24.9079 15.2418 25.1632 15.1568 25.2471 15.1431ZM7.25977 14.4204C7.34453 14.4081 7.68813 14.6441 7.75195 14.7144C8.06922 15.0642 7.96785 15.7214 7.53613 15.938C6.85054 15.5599 6.78485 15.0251 7.25977 14.4204ZM9.50391 14.5396C9.74352 15.3209 9.40227 15.8319 8.58984 15.8335C8.30445 15.0918 8.71146 14.5041 9.50391 14.5396ZM19.3789 14.271C19.4854 14.2073 19.7177 14.053 19.8184 14.1646C19.8431 14.1924 19.9815 14.5612 19.9902 14.6177C20.0734 15.1535 19.6886 15.4461 19.2129 15.562C18.8898 15.0716 18.8378 14.597 19.3789 14.271ZM2.15723 13.894C2.73164 13.7955 3.41396 14.0686 3.66895 14.5923C3.272 15.2341 2.71089 15.7052 1.91699 15.4126C1.7294 15.3438 1.11669 14.9926 1.14648 14.7905C1.33332 14.4437 1.75965 13.9623 2.15723 13.894ZM31.3184 14.2065C31.6153 14.9179 31.2371 15.5163 30.4736 15.4888C30.1571 14.784 30.494 14.2756 31.2227 14.1626L31.3184 14.2065ZM26.167 13.9985C26.9163 14.0928 27.232 14.631 26.8955 15.3218C26.1349 15.4217 25.6846 14.5983 26.167 13.9985ZM16.2461 0.354004C16.9755 1.78099 17.375 3.43863 17.2236 5.05322C17.0815 6.56347 15.5836 8.53175 14.5898 9.64502C14.4388 9.81407 13.7026 10.4661 13.6895 10.5972L15.4043 13.1743C15.4859 13.1936 15.5197 13.1046 15.5508 13.0503C15.8108 12.5925 15.9808 12.0804 16.2764 11.603C17.1036 10.2702 18.2837 9.17762 19.665 8.44385C19.2876 7.73036 18.8589 7.02153 18.7988 6.19287C18.7026 4.85867 19.3741 3.35493 20.0586 2.23877C20.3802 1.71513 20.7844 1.39772 21.4297 1.49756C21.5766 1.52 22.2943 1.80961 22.3105 1.95459C22.3352 2.18421 21.7955 2.8774 21.5869 3.00635C21.1168 3.29681 20.5265 3.03412 20.4287 3.09424C20.2505 3.20533 19.7565 4.42943 19.6826 4.68799C19.3154 5.97507 19.5227 6.99495 20.3027 8.06982C22.0579 7.63883 23.5397 6.73769 24.6016 5.25928C24.9376 4.79142 25.1977 4.28909 25.4541 3.7749C25.5787 3.85312 25.9662 4.10472 25.9678 4.23584C25.9728 4.5784 24.9142 6.01922 24.6387 6.32959C23.3885 7.73694 22.4592 7.95587 20.8252 8.65479C18.5675 9.62103 16.7308 11.5038 15.9883 13.8687C15.8405 14.3394 15.7917 14.8374 15.6201 15.2915C15.539 15.2901 15.1703 14.2873 15.0957 14.1323C14.288 12.4534 13.0298 10.7184 11.5117 9.62256C11.3916 9.53575 10.8078 9.12837 10.7207 9.11182C10.6352 9.09661 9.76688 9.83979 9.5791 9.95947C8.24484 10.8099 6.71604 11.15 5.13477 11.0015C3.84251 10.8805 3.2574 10.1081 3.74707 8.85205C4.51702 8.83184 5.41548 9.26613 5.32422 10.1606L5.37891 10.2681C6.64 10.5252 8.05245 10.059 9.12305 9.39404C9.23743 9.3231 9.85756 8.9164 9.88574 8.85303C9.89731 8.82699 9.91184 8.71124 9.85352 8.72021C8.0629 8.13204 5.31808 8.35199 3.99902 6.81201C3.88662 6.6807 3.5657 6.26203 3.60742 6.10986C3.63422 6.01208 4.05647 5.56896 4.12891 5.62256C4.41082 6.60605 5.49569 7.20081 6.45898 7.29932C6.67918 6.55615 6.83447 5.77306 6.90039 4.99658C6.91995 4.76551 6.96043 4.39581 6.95898 4.18213C6.95673 3.91043 6.76369 3.24781 6.92578 3.06592C7.03515 2.94352 7.30155 2.88172 7.41602 2.74268C7.64202 2.74412 7.62386 4.81346 7.60938 5.05322C7.55863 5.87021 7.30468 6.66434 7.19531 7.47119C7.90575 7.64928 8.64483 7.69576 9.35742 7.86377C10.6872 8.17743 11.6885 8.79107 12.7148 9.66748C12.8271 9.7631 13.0793 10.115 13.2031 10.0513C13.2871 10.0067 13.7239 9.53511 13.8281 9.42432C14.1069 9.12812 16.078 6.77233 15.9189 6.54541C13.7524 6.23973 11.5105 5.29276 10.3008 3.38916C9.96976 2.86835 9.68332 2.24856 9.61523 1.63721L10.2686 1.3833C10.7473 4.15826 13.6625 5.68238 16.2637 5.84033C16.6505 5.01968 16.5898 4.03679 16.4551 3.15674C16.2964 2.12018 15.9114 1.26666 15.4297 0.351074H16.2451L16.2461 0.354004ZM21.6641 12.9722C21.8594 12.9548 21.9901 12.9136 22.043 13.1597C22.0806 13.3337 22.0757 13.8303 22.0547 14.0171C21.975 14.7299 21.0627 15.1084 20.4209 14.9976C20.0684 13.8917 20.4727 13.0789 21.6641 12.9731V12.9722ZM6.44824 13.4536C6.55038 13.4451 6.77222 13.8528 6.80273 13.9507C6.95411 14.4273 6.6055 14.832 6.17383 14.9653C5.8696 14.6097 5.67136 14.2298 5.97559 13.8003C6.04819 13.6981 6.32991 13.4639 6.44727 13.4536H6.44824ZM24.583 12.8491C24.6259 12.8499 24.9154 12.9666 24.9746 13.0005C25.4511 13.2723 25.6707 14.0725 25.5635 14.5903C25.0899 14.8148 24.2643 14.667 23.9346 14.2573C23.676 13.935 23.5131 13.2106 23.7129 12.8491H24.583ZM0.112305 14.4243C-0.0195042 13.6595 0.406697 13.1098 1.18945 13.2935C1.38213 14.0707 0.898232 14.5511 0.112305 14.4243ZM16.9834 12.8521C17.5236 13.1541 17.7033 13.7788 17.2227 14.2358C16.9736 14.4719 16.8638 14.3692 16.6865 14.1167C16.3309 13.6104 16.5401 13.1947 16.9834 12.8521ZM7.84375 12.6812C8.52345 12.6156 8.94094 12.9001 9.21191 13.5562C9.42703 14.0777 9.36438 14.1515 8.80664 14.2905C8.13747 14.457 7.62265 14.3309 7.2627 13.7124C7.19816 13.6014 6.99818 13.146 7.00977 13.0396C7.02737 12.8875 7.55564 12.7219 7.7041 12.6987L7.84375 12.6812ZM13.4199 12.9614C14.2274 12.9355 14.5698 13.6116 14.2236 14.3091C13.4458 14.2714 13.1309 13.6727 13.4199 12.9614ZM9.8584 12.7563C10.3784 12.8874 10.756 13.0767 10.6982 13.6841C10.6483 14.2049 10.4555 14.2511 10.0332 13.981C9.58121 13.6919 9.54765 13.1598 9.8584 12.7563ZM29.8877 13.1548C30.5322 12.7104 31.2169 13.0469 31.291 13.8208C30.592 14.1823 30.0021 13.9494 29.8877 13.1548ZM12.6104 11.353C13.281 11.6558 13.4117 12.3623 12.8389 12.8433C12.4319 12.7035 12.0916 12.3462 12.208 11.8813C12.2326 11.7829 12.3899 11.4579 12.458 11.397C12.4993 11.36 12.5539 11.3378 12.6104 11.353ZM27.8535 11.1226C28.3091 11.0212 29.0003 11.1809 29.3262 11.5249C29.0429 12.7375 27.8546 13.15 26.9014 12.3257C26.9669 11.9301 27.4574 11.2109 27.8535 11.1226ZM30.8018 11.4917C31.0015 12.2556 30.5849 12.8517 29.7783 12.6782C29.6407 11.8946 29.9842 11.4078 30.8018 11.4917ZM18.0244 11.6128C18.3691 11.5527 18.7053 11.7488 18.9023 12.0181C18.6104 12.7352 17.8576 12.7848 17.3955 12.1626C17.3571 11.9649 17.8446 11.6441 18.0244 11.6128ZM3.69727 10.8628C4.11303 11.3568 4.1745 11.8888 3.58496 12.2749C3.41836 12.3843 3.39065 12.3784 3.26172 12.2241C2.84423 11.7193 3.00938 11.1361 3.57422 10.8472H3.5752L3.69727 10.8628ZM4.9834 11.2837C5.24127 11.2554 5.64646 11.4689 5.79785 11.6812C5.59627 12.2713 4.79255 12.546 4.36816 12.0376C4.15025 11.7769 4.71097 11.3136 4.9834 11.2837ZM10.6328 9.5415C10.9123 9.451 11.5899 9.90524 11.7656 10.1313C12.1618 10.6434 11.9809 11.3746 11.6484 11.8657C10.982 11.7658 10.2194 11.2402 10.2744 10.4927C10.2862 10.3372 10.5049 9.58438 10.6338 9.5415H10.6328ZM0.96875 10.7466C1.35407 10.0991 1.93666 10.0174 2.62109 10.2563C2.87607 10.3454 3.02198 10.3317 2.97852 10.6353C2.91462 11.0821 2.45686 11.7429 1.98047 11.812C1.70015 11.8519 0.930777 11.7762 0.720703 11.5864H0.719727C0.599868 11.4775 0.885364 10.8873 0.96875 10.7466ZM24.9619 9.86084C25.1674 9.86156 26.009 10.1329 26.0684 10.3335C26.1053 10.4617 25.7869 11.0118 25.6875 11.1294C25.1305 11.7886 24.3525 11.5729 23.6934 11.2114C23.6948 10.6016 24.3245 9.85875 24.9619 9.86084ZM18.8105 10.771C18.8265 10.5263 19.248 9.88851 19.4863 10.0942C19.9121 10.4628 19.9292 11.2673 19.3799 11.5044C19.0568 11.6435 18.7932 11.0419 18.8105 10.771ZM15.3076 9.76416C15.7596 9.70239 16.4485 10.0852 16.6787 10.4849C16.0832 11.5986 14.9692 11.7199 14.1406 10.7573C14.329 10.3271 14.826 9.83007 15.3076 9.76416ZM9.4082 10.3013C9.71254 10.3183 9.97075 10.5331 10.1533 10.7651C9.82665 11.3792 9.0731 11.485 8.64355 10.9087C8.57836 10.6711 9.05229 10.3366 9.27539 10.3062L9.4082 10.3013ZM29.1455 10.4565C29.7612 9.9792 30.5219 10.2793 30.5791 11.0493C29.9137 11.4127 29.3007 11.2231 29.1455 10.4565ZM21.1055 9.31787C21.1301 9.31792 21.5131 9.47715 21.5645 9.51025C21.9571 9.76812 22.21 10.7088 21.9746 11.1108H21.0508C20.8466 11.1104 20.4138 10.7375 20.3076 10.5513C20.2106 10.3811 19.9518 9.31867 20.1816 9.31787H21.1055ZM27.2568 7.47998C27.4936 7.43301 27.6352 7.79262 27.7148 7.97803C28.1419 8.9723 27.6295 9.57315 26.709 9.91064C26.2158 9.33045 25.9793 8.49817 26.5898 7.90283C26.6945 7.80051 27.1282 7.50532 27.2578 7.47998H27.2568ZM25.0508 8.56494C25.7961 8.51134 26.2739 9.01719 26.0732 9.74951C25.2714 9.88709 24.8016 9.32694 25.0508 8.56494ZM16.2832 8.29346C16.5389 8.22827 16.9254 8.78162 16.9385 9.03369C16.9477 9.20271 16.7078 9.74187 16.542 9.75635C16.3226 9.77572 15.9516 9.33511 15.9209 9.12354C15.8905 8.91212 16.0624 8.34942 16.2832 8.29248V8.29346ZM7.4873 8.67822C7.8263 8.64925 8.11516 8.88343 8.30566 9.13623C8.02468 9.82637 7.1425 9.84829 6.79102 9.18311C6.90472 8.94267 7.22295 8.70076 7.4873 8.67822ZM2.20703 8.07178C2.91835 8.33472 3.2057 9.01887 2.58203 9.57373C1.8528 9.31146 1.68049 8.65482 2.20703 8.07178ZM5.16797 8.12842C5.94084 8.08643 6.35916 8.69467 6.0332 9.40381C5.27723 9.43911 4.84435 8.82292 5.16797 8.12842ZM22.6416 8.24365C22.7575 8.22193 23.1709 8.19562 23.2305 8.28174C23.3746 9.0329 22.8395 9.47045 22.1094 9.29443C21.9457 8.87441 22.1826 8.3286 22.6416 8.24365ZM13.0742 6.71826C14.1542 7.42522 14.0249 8.68383 12.9102 9.25537C11.8846 8.46228 11.9786 7.37817 13.0742 6.71826ZM17.0752 7.35205C17.6228 7.09274 18.1492 7.04862 18.6143 7.48975L18.7402 7.64307C18.9024 7.86097 19.1376 8.2255 19.1182 8.30713C18.2982 8.96702 17.4417 9.09014 16.8281 8.10791C16.5414 7.6488 16.5581 7.59686 17.0752 7.35205ZM28.5068 7.75537C28.7727 7.71408 28.9702 7.74868 29.168 7.93701C29.276 8.04012 29.5186 8.41791 29.4209 8.55908C29.3819 8.61357 28.9067 8.7655 28.8154 8.76807C28.399 8.78038 28.1318 8.3836 27.9941 8.03955C28.0038 7.91009 28.389 7.77375 28.5068 7.75537ZM3.24219 6.93604C3.32182 6.91649 3.69675 7.03317 3.78613 7.07959C4.00849 7.19548 4.17151 7.46812 4.18457 7.71729C4.20775 8.15404 4.04469 8.25084 3.63477 8.15381C3.04598 8.01476 2.85616 7.02884 3.24121 6.93506L3.24219 6.93604ZM11.0029 7.03174C11.5339 7.04478 11.8443 7.50994 11.7842 8.0083C11.2773 8.12485 10.8168 8.172 10.5742 7.62744C10.3679 7.16404 10.5112 7.01944 11.0029 7.03174ZM14.2734 6.56104C14.3921 6.54149 14.5112 6.53236 14.6299 6.55908C14.8523 6.60979 15.3145 7.09949 15.1855 7.30811C14.5714 7.79156 13.9811 7.58446 13.7529 6.85303C13.7761 6.73517 14.1578 6.58019 14.2734 6.56104ZM8.62598 5.90869C9.30536 5.81094 9.70552 6.16307 10.0068 6.72803C10.2459 7.1764 10.1331 7.23504 9.6543 7.42627C9.13436 7.63405 8.66983 7.64991 8.23242 7.25244C8.10421 7.13582 7.68427 6.51979 7.72266 6.36768C7.77348 6.1693 8.43124 5.93693 8.62598 5.90869ZM21.3906 5.09229C21.6866 5.05037 21.6925 5.18991 21.7852 5.43311C22.2017 6.52688 21.6777 7.13945 20.623 7.40674C20.2228 7.03783 20.1253 6.14801 20.4258 5.70557C20.5752 5.48607 21.1278 5.13019 21.3906 5.09326V5.09229ZM12.0381 5.57373C12.1692 5.53403 12.3559 5.72005 12.4385 5.81201C12.8309 6.25311 12.684 6.76362 12.2393 7.08447C11.7713 6.86934 11.5398 6.44781 11.7578 5.94873C11.7876 5.88124 11.9905 5.58821 12.0391 5.57373H12.0381ZM10.791 5.14307C11.5079 5.37196 11.6186 6.18915 11.0469 6.64697C10.3283 6.40069 10.226 5.6139 10.791 5.14307ZM18.0908 5.15967C18.4124 5.56958 18.6057 5.88696 18.2539 6.35693C17.9613 6.74736 17.7328 6.71331 17.5264 6.27002C17.3026 5.7906 17.5406 5.38213 17.9678 5.14307L18.0908 5.15967ZM5.74609 3.89307C5.95174 3.83645 6.2868 4.31476 6.38184 4.48584C6.84975 5.32462 6.35398 5.99751 5.63184 6.43213C5.17417 6.04675 4.74683 5.41654 4.96191 4.79736C5.03974 4.57329 5.52454 3.95533 5.74609 3.89307ZM22.8213 5.11182C22.9879 4.99012 23.194 4.84328 23.3193 5.04248C23.5096 5.34674 23.5567 5.82663 23.2881 6.09521V6.09424C23.1995 6.1827 22.7748 6.44913 22.6611 6.37744C22.4048 5.88359 22.3196 5.47753 22.8213 5.11182ZM26.2852 5.20361C26.5585 5.08004 27.3184 5.17132 27.1914 5.56494C26.9748 6.23425 26.3838 6.30418 25.8174 5.99561C25.6959 5.79994 26.1019 5.2869 26.2852 5.20361ZM7.93945 4.76123C8.60289 4.42388 9.30329 4.73872 9.26562 5.51514C8.61812 5.93739 7.95118 5.48256 7.93945 4.76123ZM14.4092 3.43311C14.8676 3.42731 15.4758 3.50706 15.8076 3.85889C15.8779 3.9335 16.0801 4.32797 16.0801 4.40186V5.32471L16.0068 5.36084C15.6152 5.5178 14.9027 5.32108 14.6182 5.04736C14.2514 4.69385 14.2244 3.95779 14.3408 3.49072L14.4092 3.43311ZM10.0752 3.88232C10.3191 3.90368 10.5171 4.48724 10.4824 4.72412C10.4477 4.96099 10.0238 5.48017 9.78906 5.34326V5.34229C9.759 5.32351 9.53424 4.94343 9.52051 4.87842C9.49371 4.75166 9.48958 4.53791 9.51855 4.4126C9.55636 4.25172 9.89343 3.86639 10.0752 3.88232ZM23.6699 2.58838C24.8773 2.96074 25.1317 4.20469 24.2031 5.06592C23.0289 4.62189 22.7862 3.48223 23.6699 2.58838ZM20.3369 3.90283C20.5799 3.66246 21.3193 3.45177 21.291 4.01221C21.2576 4.68247 20.8315 4.88846 20.2061 4.83936C20.1003 4.56338 20.1153 4.12231 20.3369 3.90283ZM22.2031 3.18506C22.4088 3.13146 22.751 3.71677 22.7539 3.91162C22.7564 4.1068 22.4534 4.70218 22.2471 4.70264C22.0522 4.70264 21.735 4.16428 21.7285 3.96436C21.7216 3.73104 21.9889 3.2412 22.2031 3.18506ZM18.6631 2.04834C18.8888 2.10472 19.1539 2.78585 19.1758 2.98779C19.246 3.63826 18.8354 4.20815 18.2363 4.43994C17.9548 4.5484 17.938 4.40865 17.8076 4.19287C17.5969 3.84306 17.4731 3.42358 17.5693 3.01221C17.6461 2.68335 18.2922 2.09249 18.6182 2.04541L18.6631 2.04834ZM13.2744 2.91357C13.5878 3.14317 13.7626 3.45338 13.6865 3.85596C13.6543 4.02565 13.2381 4.52952 13.0469 4.41748V4.41846C12.5594 3.90416 12.595 3.2207 13.2744 2.91357ZM8.83789 1.8833C9.05512 1.82248 9.33159 2.24489 9.43164 2.41162C9.77425 2.98095 9.75174 3.38649 9.3418 3.91162C8.90356 4.47299 8.6558 4.5463 8.26465 3.90381C7.90107 3.3063 7.91545 2.83178 8.37305 2.2915C8.42367 2.2322 8.79924 1.89443 8.83789 1.8833ZM14.915 1.98291C15.3841 1.98532 15.693 2.48068 15.6953 2.8999C15.2325 3.10631 14.7029 3.12139 14.4414 2.61963C14.2024 2.16039 14.4457 1.98074 14.915 1.98291ZM11.2881 0.965332C12.2761 0.829169 12.717 1.41451 12.9082 2.30908C12.5019 2.64805 11.7218 2.77728 11.2734 2.47314C11.0025 2.28989 10.5866 1.62168 10.5967 1.29932C10.6025 1.12909 11.1425 0.984637 11.2881 0.964355V0.965332ZM19.042 0.696777C19.5388 0.859746 19.8817 1.03251 19.8252 1.62354C19.7737 2.15855 19.5343 2.21013 19.1172 1.90967C18.7137 1.6192 18.6907 1.02998 19.042 0.696777ZM17.7676 0.354004C17.9602 0.590737 18.2073 0.848462 18.1895 1.18213C18.175 1.45157 17.7494 2.08805 17.4951 1.84912C16.9273 1.3153 17.2257 0.78281 17.7139 0.354004H17.7676ZM14.9375 0.354004C15.1751 1.1153 14.7791 1.69952 13.9678 1.59521C13.755 0.955771 13.9804 0.607495 14.5576 0.354004H14.9375Z" fill="black"/>
</svg>
