<svg width="54" height="32" viewBox="0 0 54 32" fill="none" xmlns="http://www.w3.org/2000/svg">
<mask id="mask0_247_39" style="mask-type:luminance" maskUnits="userSpaceOnUse" x="0" y="0" width="54" height="32">
<path d="M0.744141 0.336914H53.1562V31.6637H0.744141V0.336914Z" fill="white"/>
</mask>
<g mask="url(#mask0_247_39)">
<path d="M53.158 0.974724L38.4043 9.04197H44.3124C42.8133 12.246 42.1776 15.7861 42.4686 19.3115C42.7595 22.8369 43.9668 26.225 45.9709 29.1399C44.2118 18.6159 48.5204 8.42568 53.158 0.974121V0.974724Z" fill="black"/>
<path d="M2.76713 31.6164H3.2551V29.3031H2.76713V31.6164ZM2.70447 28.6121C2.70494 28.5721 2.71335 28.5326 2.72923 28.4959C2.74511 28.4592 2.76812 28.4261 2.79695 28.3984C2.82577 28.3707 2.85981 28.349 2.8971 28.3346C2.93439 28.3202 2.97417 28.3133 3.01413 28.3145C3.18763 28.3145 3.32318 28.4518 3.32318 28.6121C3.32159 28.6925 3.28818 28.7691 3.23025 28.825C3.17233 28.8809 3.09461 28.9116 3.01413 28.9103C2.97412 28.9114 2.93429 28.9045 2.89696 28.8901C2.85964 28.8756 2.82556 28.8539 2.79673 28.8261C2.7679 28.7984 2.7449 28.7651 2.72906 28.7284C2.71322 28.6916 2.70486 28.6521 2.70447 28.6121ZM3.73525 29.2826H4.20454V29.5266C4.34491 29.3591 4.53227 29.244 4.78108 29.244C4.84674 29.244 4.92145 29.2585 4.97326 29.2729V29.7079C4.89536 29.6862 4.81495 29.6748 4.73409 29.6742C4.47624 29.6742 4.33045 29.7651 4.20936 29.8699V31.617H3.73525V29.2826ZM5.17989 31.4905V31.1146C5.3305 31.1803 5.59919 31.2507 5.81486 31.2507C6.11608 31.2507 6.26187 31.1519 6.26187 30.9405C6.26187 30.7477 6.11608 30.6959 5.83414 30.5971C5.49497 30.4989 5.18471 30.32 5.18471 29.9067C5.18471 29.4513 5.51846 29.244 6.00824 29.244C6.24801 29.244 6.47393 29.2958 6.58658 29.3428V29.7236C6.40865 29.6508 6.21855 29.6124 6.02632 29.6103C5.76365 29.6103 5.63654 29.7043 5.63654 29.8742C5.63654 30.0428 5.75402 30.1091 6.05041 30.2031C6.37031 30.3061 6.72756 30.4561 6.72756 30.9122C6.72756 31.3538 6.38898 31.617 5.88595 31.617C5.61304 31.617 5.34496 31.5652 5.17989 31.4905ZM7.16191 30.9495V29.5989H6.83178V29.2458H7.16733L7.25589 28.6253H7.66073V29.2458H8.21257V29.5989H7.66073V30.8778C7.66073 31.1218 7.74869 31.226 7.97099 31.226C8.09388 31.226 8.20293 31.1977 8.27642 31.1688V31.5501C8.14131 31.5946 7.99998 31.6174 7.85773 31.6176C7.39867 31.6176 7.16191 31.4369 7.16191 30.9495ZM11.2814 30.5128L10.991 29.6482C10.9223 29.447 10.8404 29.2018 10.8067 29.0579H10.7964C10.7579 29.2018 10.6759 29.447 10.6079 29.6482L10.3024 30.5128H11.2814ZM10.5301 28.6253H11.1121L12.1965 31.6176H11.6447L11.4121 30.9212H10.1669L9.92469 31.6176H9.41142L10.5301 28.6253ZM13.8616 30.4067C13.8616 29.9416 13.7219 29.591 13.2821 29.591C13.1224 29.591 12.9688 29.6489 12.8748 29.7302V31.1796C12.973 31.2128 13.1086 31.2321 13.2351 31.2321C13.6749 31.2321 13.8616 30.8772 13.8616 30.4067ZM12.4025 31.4574V28.3145H12.8748V29.4133C12.9592 29.3175 13.1556 29.1928 13.4273 29.1928C14.0912 29.1928 14.3623 29.7254 14.3623 30.3826C14.3623 31.0592 13.9646 31.6164 13.2255 31.6164C12.917 31.6164 12.6128 31.5441 12.4025 31.4574ZM14.6731 30.7917V29.244H15.1448V30.7152C15.1448 31.0399 15.243 31.2303 15.5876 31.2303C15.7714 31.2303 15.9412 31.1447 16.0545 31.0682V29.244H16.5304V31.5791H16.0587V31.3929C15.9455 31.4833 15.7244 31.617 15.4225 31.617C14.8623 31.617 14.6731 31.264 14.6731 30.7917ZM19.0552 31.2043C19.8348 31.2043 20.0258 30.7001 20.0258 30.1236C20.0258 29.547 19.8444 29.0283 19.0836 29.0283H18.6769V31.2043H19.0552ZM18.1793 28.6253H19.1414C20.1655 28.6253 20.5523 29.3452 20.5523 30.1236C20.5523 30.8585 20.1794 31.6176 19.1263 31.6176H18.1793V28.6253ZM20.9656 28.3145H21.4325V29.3964C21.6145 29.2548 21.838 29.1771 22.0686 29.1753C22.6295 29.1753 22.8229 29.5235 22.8229 29.9892V31.5134H22.347V30.0645C22.347 29.7452 22.2524 29.5567 21.9084 29.5567C21.7198 29.5567 21.5499 29.641 21.4421 29.7163V31.5134H20.9662L20.9656 28.3145ZM24.4404 31.1056V30.57C24.4061 30.57 24.3181 30.5646 24.2549 30.5646C23.85 30.5646 23.6302 30.673 23.6302 30.9314C23.6302 31.1435 23.7766 31.2604 24.0205 31.2604C24.2013 31.2604 24.3525 31.1899 24.4404 31.1056ZM24.5043 31.3586C24.3959 31.4911 24.1621 31.6176 23.8796 31.6176C23.4301 31.6176 23.1331 31.3736 23.1331 30.9688C23.1331 30.4941 23.5476 30.2639 24.2067 30.2639C24.2844 30.2639 24.3772 30.2694 24.4404 30.2736V30.0904C24.4404 29.7615 24.3037 29.6254 23.9525 29.6254C23.7037 29.6254 23.494 29.6958 23.3524 29.7567V29.3711C23.5187 29.3055 23.7621 29.2446 24.0404 29.2446C24.6013 29.2446 24.9332 29.4747 24.9332 30.0109V31.0537C24.9332 31.1995 25.0013 31.2465 25.1079 31.2465C25.1377 31.2455 25.1673 31.2423 25.1965 31.2369V31.5658C25.1084 31.6025 25.0135 31.62 24.9182 31.617C24.7085 31.617 24.5676 31.5182 24.5043 31.3586ZM26.8616 30.4067C26.8616 29.9416 26.7213 29.591 26.2815 29.591C26.1224 29.591 25.9682 29.6489 25.8748 29.7302V31.1796C25.973 31.2128 26.1086 31.2321 26.2345 31.2321C26.6743 31.2321 26.8616 30.8772 26.8616 30.4067ZM25.4019 31.4574V28.3145H25.8748V29.4133C25.9592 29.3175 26.155 29.1928 26.4267 29.1928C27.0906 29.1928 27.3623 29.7254 27.3623 30.3826C27.3623 31.0592 26.9647 31.6164 26.2255 31.6164C25.9435 31.6149 25.6642 31.5609 25.4019 31.4574ZM27.7352 31.6164H28.2237V29.3031H27.7358L27.7352 31.6164ZM27.6725 28.6121C27.673 28.5721 27.6814 28.5326 27.6973 28.4959C27.7132 28.4592 27.7362 28.4261 27.765 28.3984C27.7938 28.3707 27.8279 28.349 27.8651 28.3346C27.9024 28.3202 27.9422 28.3133 27.9822 28.3145C28.1563 28.3145 28.2918 28.4518 28.2918 28.6121C28.2902 28.6926 28.2567 28.7693 28.1987 28.8252C28.1406 28.8811 28.0628 28.9117 27.9822 28.9103C27.9422 28.9114 27.9023 28.9045 27.865 28.8901C27.8277 28.8756 27.7936 28.8539 27.7648 28.8261C27.7359 28.7984 27.7129 28.7651 27.6971 28.7284C27.6813 28.6916 27.6729 28.6521 27.6725 28.6121ZM30.9227 31.2188C31.2769 31.2188 31.4637 31.0513 31.4637 30.7387C31.4637 30.417 31.2914 30.2386 30.9323 30.2386H30.4383V31.2188H30.9227ZM30.9082 29.879C31.2534 29.879 31.4106 29.7205 31.4106 29.4374C31.4106 29.1922 31.2576 29.0241 30.913 29.0241H30.4389V29.879H30.9082ZM29.9413 28.6253H30.9654C31.5835 28.6253 31.9089 28.9283 31.9089 29.3844C31.9089 29.7398 31.6787 29.9748 31.4251 30.0428V30.0519C31.7504 30.1188 32.0046 30.3543 32.0046 30.7531C32.0046 31.2772 31.6215 31.6176 30.9944 31.6176H29.9413V28.6253ZM33.5192 31.1056V30.57C33.4854 30.57 33.3975 30.5646 33.3342 30.5646C32.9288 30.5646 32.7095 30.673 32.7095 30.9314C32.7095 31.1435 32.8559 31.2604 33.0999 31.2604C33.2806 31.2604 33.4312 31.1899 33.5192 31.1056ZM33.583 31.3586C33.4758 31.4911 33.2415 31.6176 32.9589 31.6176C32.5095 31.6176 32.2119 31.3736 32.2119 30.9688C32.2119 30.4941 32.627 30.2639 33.2854 30.2639C33.3637 30.2639 33.4559 30.2694 33.5192 30.2736V30.0904C33.5192 29.7615 33.3824 29.6254 33.0312 29.6254C32.783 29.6254 32.5734 29.6958 32.4318 29.7567V29.3711C32.5981 29.3055 32.8414 29.2446 33.1192 29.2446C33.68 29.2446 34.012 29.4747 34.012 30.0109V31.0537C34.012 31.1995 34.08 31.2465 34.1873 31.2465C34.2114 31.2465 34.2463 31.2417 34.2758 31.2369V31.5658C34.1876 31.6026 34.0925 31.6201 33.9969 31.617C33.7879 31.617 33.6457 31.5182 33.583 31.3586ZM34.4831 29.2826H34.9494V29.4693C35.1305 29.3252 35.3547 29.2459 35.5861 29.244C36.1464 29.244 36.3404 29.5976 36.3404 30.0706V31.617H35.8645V30.1471C35.8645 29.8224 35.7699 29.6314 35.4259 29.6314C35.2367 29.6314 35.0674 29.7169 34.9596 29.794V31.617H34.4831V29.2826ZM37.9893 31.2881L37.3326 30.4049V31.5971H36.8549V28.3139H37.332V30.2688L38.1501 29.2362H38.6742L37.8097 30.2977L38.4152 31.0893C38.4905 31.1911 38.5513 31.2339 38.6562 31.2339C38.6652 31.2339 38.6742 31.2339 38.7122 31.2296V31.5965C38.6661 31.6096 38.6185 31.6161 38.5706 31.6158C38.3441 31.6158 38.179 31.5483 37.9893 31.2881ZM0.744141 28.6253H2.49784V29.0386H1.25079V29.8597H2.36651V30.2489H1.25079V31.6176H0.744141V28.6253ZM26.8466 9.02258H33.1704C36.7729 9.02258 38.72 10.7287 38.72 13.2619C38.72 15.3144 37.467 16.5681 36.1054 16.9404V16.9946C37.8935 17.3947 39.2273 18.6471 39.2273 20.8069C39.2273 23.8468 36.932 25.6336 33.3306 25.6336H26.8466V9.02258ZM32.6902 15.7952C34.3445 15.7952 35.0379 15.0482 35.0379 13.7686C35.0379 12.6221 34.318 11.8751 32.7167 11.8751H30.5022V15.7952H32.6902ZM32.7697 22.7805C34.3975 22.7805 35.2783 22.0334 35.2783 20.5671C35.2783 19.0743 34.4512 18.3007 32.7969 18.3007H30.5022V22.7805H32.7697ZM15.5497 9.02258H19.6306L25.7122 25.6336H21.7379L20.6716 22.3274H14.1894L13.0688 25.6336H9.3078L15.5497 9.02258ZM19.7107 19.3942L18.3239 15.1277C18.0034 14.1415 17.6835 13.1818 17.4967 12.4089H17.4437C17.2305 13.1559 16.91 14.168 16.5895 15.1277L15.1496 19.3942H19.7107ZM0.744141 9.02258H10.9585V12.0354H4.40696V15.9012H10.2362V18.6742H4.40757V25.633H0.744141V9.02258ZM4.72204 4.97661H4.20093C4.13209 4.97757 4.06379 4.96438 4.00026 4.93785C3.93674 4.91132 3.87934 4.87202 3.83164 4.82238C3.78221 4.77442 3.74309 4.71688 3.71667 4.65328C3.69026 4.58968 3.6771 4.52135 3.67801 4.45248V4.12717C3.67674 4.05825 3.68973 3.98982 3.71617 3.92617C3.74261 3.86251 3.78192 3.80501 3.83164 3.75727C3.87924 3.70747 3.93661 3.66802 4.00015 3.64138C4.06369 3.61474 4.13204 3.60148 4.20093 3.60244C4.34371 3.60244 4.46661 3.65425 4.56842 3.75727C4.67083 3.85848 4.72204 3.98138 4.72204 4.12657V4.97661ZM4.20093 3.14158C3.93044 3.14158 3.6997 3.23857 3.50813 3.43195C3.41505 3.52182 3.34141 3.62984 3.29177 3.74932C3.24214 3.8688 3.21756 3.9972 3.21956 4.12657V4.45248C3.21956 4.72418 3.31595 4.95673 3.50752 5.15011C3.6997 5.34168 3.93044 5.43747 4.20093 5.43747H4.72204C4.71655 5.55606 4.66462 5.66773 4.57745 5.74833C4.53599 5.78964 4.48673 5.82231 4.43254 5.84444C4.37835 5.86657 4.32031 5.87772 4.26178 5.87725H3.74549C3.70753 5.87725 3.68826 5.89653 3.68826 5.93629V6.28028C3.68826 6.32004 3.70753 6.34053 3.74549 6.34053H4.26178C4.51119 6.34053 4.72626 6.24835 4.90638 6.06521C5.08953 5.88328 5.17989 5.667 5.17989 5.41639V4.12717C5.17989 3.85487 5.08471 3.62293 4.89434 3.43195C4.80492 3.33866 4.69728 3.26474 4.5781 3.21479C4.45892 3.16484 4.33014 3.13992 4.20093 3.14158ZM7.7035 2.1084H7.36493C7.32758 2.1084 7.30951 2.12707 7.30951 2.16443V4.51996C7.30951 4.64105 7.28361 4.7278 7.23119 4.77961C7.17878 4.82961 7.09263 4.85491 6.97154 4.85612H5.64618C5.61184 4.85612 5.59437 4.876 5.59437 4.91455V5.25192C5.59437 5.28807 5.61304 5.30674 5.64979 5.30674H6.97154C7.21734 5.30674 7.41072 5.23686 7.55109 5.09589C7.69085 4.95733 7.76074 4.76455 7.76074 4.51755V2.16443C7.76074 2.12707 7.74206 2.1084 7.7035 2.1084Z" fill="black"/>
<path d="M6.26431 2.52307C6.23057 2.52307 6.2137 2.54235 6.2137 2.5809V4.73522C6.2137 4.77378 6.23057 4.79306 6.26431 4.79306H6.57396C6.6089 4.79306 6.62637 4.77378 6.62637 4.73522V2.5809C6.62637 2.54235 6.6089 2.52307 6.57396 2.52307H6.26431ZM6.05225 2.21161H6.88964C6.91976 2.21161 6.93542 2.19715 6.93542 2.16703V2.0363C6.93542 2.00738 6.91976 1.99232 6.88964 1.99232H6.40829V1.74653C6.40829 1.70797 6.42275 1.67423 6.45227 1.64773C6.46587 1.63466 6.48192 1.62443 6.4995 1.6176C6.51707 1.61078 6.53583 1.6075 6.55468 1.60797C6.61914 1.60797 6.66312 1.63568 6.68661 1.69231L6.71372 1.75255C6.71975 1.76339 6.72758 1.77123 6.73662 1.77665C6.74272 1.77925 6.74926 1.78068 6.75589 1.78087C6.76211 1.78101 6.76828 1.77977 6.77397 1.77725L6.90048 1.72424C6.91976 1.7152 6.9294 1.70315 6.9294 1.68809C6.92911 1.68102 6.92748 1.67406 6.92458 1.66761L6.89807 1.60736C6.83361 1.45977 6.71915 1.38627 6.55468 1.38627C6.50554 1.38557 6.45675 1.39463 6.41115 1.41293C6.36554 1.43124 6.32402 1.45842 6.28901 1.4929C6.25417 1.52522 6.22652 1.5645 6.20784 1.60819C6.18916 1.65188 6.17987 1.69901 6.18057 1.74653V1.99232H6.05225C6.02152 1.99232 6.00586 2.00738 6.00586 2.0363V2.16703C6.00586 2.19715 6.02152 2.21161 6.05225 2.21161ZM8.63912 2.10859H8.33067C8.29512 2.10859 8.27765 2.12847 8.27765 2.16643V5.25151C8.27765 5.28826 8.29512 5.30694 8.33067 5.30694H8.63912C8.67346 5.30694 8.69032 5.28886 8.69032 5.25151V2.16703C8.69032 2.12847 8.67346 2.10859 8.63912 2.10859ZM12.1254 6.34012H11.8381C11.8019 6.34012 11.7838 6.35759 11.7838 6.39193V6.69676C11.7838 6.73291 11.8019 6.75098 11.8381 6.75098H12.1254C12.1604 6.75098 12.1778 6.73291 12.1778 6.69676V6.39193C12.1778 6.35759 12.1604 6.34012 12.1254 6.34012ZM11.4013 6.34012H11.1133C11.0784 6.34012 11.0615 6.35759 11.0615 6.39193V6.69676C11.0615 6.73291 11.0784 6.75098 11.1133 6.75098H11.4013C11.4356 6.75098 11.4525 6.73291 11.4525 6.69676V6.39193C11.4525 6.35759 11.4356 6.34012 11.4013 6.34012ZM17.9028 5.82503H17.6136C17.5787 5.82503 17.5612 5.8419 17.5612 5.87684V6.18167C17.5612 6.21782 17.5787 6.23529 17.613 6.23529H17.9028C17.9377 6.23529 17.9552 6.21722 17.9552 6.18107V5.87684C17.9552 5.8419 17.9371 5.82503 17.9028 5.82503ZM21.0283 4.56774C21.0283 4.69305 21.0017 4.78161 20.9487 4.83402C20.8969 4.88824 20.8096 4.91475 20.6855 4.91656H19.4324V4.17435C19.5716 4.0141 19.7577 3.86831 19.9909 3.73758C20.224 3.60806 20.4065 3.54239 20.5373 3.54239C20.7294 3.54239 20.8662 3.62131 20.9487 3.77915C21.0017 3.88036 21.0283 4.00446 21.0283 4.15146V4.56774ZM20.5373 3.08032C20.2342 3.08032 19.8656 3.24901 19.4324 3.58758V2.16763C19.4324 2.12847 19.4131 2.10859 19.374 2.10859H19.0318C18.9938 2.10859 18.9751 2.12847 18.9751 2.16763V4.91656H18.2896C18.1872 4.91656 18.1209 4.9021 18.089 4.87197C18.0781 4.8545 18.0728 4.8341 18.0739 4.81354V3.22611C18.0739 3.18816 18.0546 3.16888 18.0155 3.16888H17.6733C17.6371 3.16888 17.6191 3.18816 17.6191 3.22611V4.75631C17.6191 4.81655 17.607 4.85872 17.5835 4.88282C17.5594 4.90571 17.5215 4.91656 17.4672 4.91656H13.9605V3.87313C13.9605 3.65445 13.8839 3.46829 13.7309 3.31287C13.6599 3.23776 13.5739 3.1783 13.4786 3.13826C13.3833 3.09822 13.2807 3.07849 13.1773 3.08032C12.9616 3.08032 12.7779 3.15804 12.6261 3.31287C12.5518 3.38579 12.4931 3.47307 12.4537 3.56939C12.4142 3.66571 12.3948 3.76906 12.3965 3.87313V5.46598H11.1326C11.061 5.46652 10.99 5.45254 10.924 5.4249C10.8579 5.39725 10.7981 5.35651 10.7483 5.30513C10.697 5.25442 10.6565 5.19385 10.6292 5.12707C10.602 5.06028 10.5886 4.98867 10.5898 4.91656C10.5898 4.80932 10.6175 4.70992 10.6736 4.61835C10.726 4.52852 10.8034 4.45589 10.8965 4.4093L11.0495 4.32918C11.0736 4.31833 11.085 4.30327 11.085 4.2846C11.0843 4.27346 11.0808 4.26268 11.0748 4.25327L10.9199 3.94482C10.9168 3.93781 10.9122 3.93153 10.9065 3.92635C10.9008 3.92117 10.8941 3.91721 10.8868 3.9147C10.8798 3.91146 10.872 3.91015 10.8643 3.91089C10.8565 3.91163 10.8491 3.9144 10.8428 3.91892L10.6898 3.99723C10.5211 4.08519 10.3862 4.2117 10.285 4.37798C10.1861 4.54019 10.134 4.72658 10.1344 4.91656C10.1344 5.19669 10.2326 5.43586 10.4265 5.63285C10.5159 5.72663 10.6235 5.80105 10.7428 5.85152C10.8621 5.90199 10.9904 5.92742 11.12 5.92624H12.6242C12.6543 5.92674 12.6841 5.921 12.7118 5.90939C12.7394 5.89777 12.7644 5.88054 12.7851 5.85877C12.8066 5.83754 12.8235 5.81218 12.8349 5.78422C12.8463 5.75627 12.8519 5.72629 12.8514 5.69611V3.87313C12.8505 3.82946 12.8586 3.78607 12.8752 3.74566C12.8918 3.70525 12.9165 3.66867 12.9478 3.63818C12.9772 3.607 13.0128 3.58228 13.0523 3.56558C13.0918 3.54888 13.1344 3.54058 13.1773 3.54119C13.2205 3.54046 13.2635 3.54871 13.3034 3.5654C13.3433 3.58209 13.3794 3.60687 13.4092 3.63818C13.4405 3.66867 13.4652 3.70525 13.4818 3.74566C13.4984 3.78607 13.5065 3.82946 13.5056 3.87313V5.14669C13.5056 5.21175 13.5279 5.26597 13.5719 5.30934C13.5925 5.33114 13.6175 5.3484 13.6452 5.36002C13.6729 5.37163 13.7027 5.37736 13.7327 5.37682H17.4648C17.6359 5.37682 17.7763 5.32682 17.8847 5.22681C18.0028 5.32682 18.1655 5.37742 18.3727 5.37742H20.6861C20.9367 5.37742 21.1319 5.30513 21.2728 5.16175C21.4132 5.01957 21.4837 4.82137 21.4837 4.56774V4.15206C21.4837 3.83217 21.3969 3.57372 21.2228 3.37612C21.0487 3.17912 20.8204 3.08093 20.5379 3.08093L20.5373 3.08032Z" fill="black"/>
<path d="M20.1911 2.72659H20.4784C20.5146 2.72659 20.5327 2.70911 20.5327 2.67417V2.36934C20.5327 2.33319 20.5146 2.31572 20.4784 2.31572H20.1911C20.1561 2.31572 20.1387 2.3338 20.1387 2.36994V2.67417C20.1387 2.70911 20.1567 2.72659 20.1911 2.72659ZM23.3888 4.97669H22.8695C22.8011 4.97757 22.7333 4.96432 22.6703 4.93778C22.6073 4.91125 22.5504 4.87199 22.5032 4.82247C22.4541 4.77436 22.4152 4.71677 22.389 4.65318C22.3628 4.58959 22.3498 4.52134 22.3508 4.45257V4.12725C22.3508 3.98146 22.4014 3.85857 22.5032 3.75736C22.5503 3.70767 22.6071 3.66826 22.6702 3.64161C22.7332 3.61497 22.8011 3.60166 22.8695 3.60253C23.0129 3.60253 23.1352 3.65434 23.2352 3.75736C23.3376 3.85857 23.3882 3.98146 23.3882 4.12665L23.3888 4.97669ZM26.9956 3.22842H26.6528C26.6155 3.22842 26.5962 3.24769 26.5962 3.28565V4.81584C26.5962 4.87669 26.5842 4.91886 26.5607 4.94235C26.539 4.96525 26.4962 4.97669 26.4354 4.97669H23.8467V4.12725C23.8467 3.85495 23.7503 3.62301 23.5599 3.43204C23.3683 3.23866 23.1382 3.14167 22.8695 3.14167C22.6002 3.14167 22.3707 3.23866 22.1809 3.43204C22.0884 3.52219 22.0152 3.6303 21.9659 3.74975C21.9165 3.86919 21.8922 3.99745 21.8942 4.12665V4.45257C21.8942 4.72427 21.9906 4.95681 22.1809 5.15019C22.3707 5.34177 22.6002 5.43756 22.8695 5.43756H23.3882C23.3825 5.55559 23.3316 5.66689 23.246 5.74841C23.1625 5.83114 23.0497 5.87748 22.9322 5.87734H22.4159C22.3779 5.87734 22.3593 5.89661 22.3593 5.93638V6.28037C22.3593 6.32013 22.3779 6.34061 22.4159 6.34061H22.9322C23.0504 6.34132 23.1675 6.31803 23.2764 6.27216C23.3854 6.22629 23.4839 6.15878 23.5659 6.07373C23.6524 5.99148 23.7218 5.89292 23.77 5.78373C23.8181 5.67454 23.8442 5.55688 23.8467 5.43756H26.436C26.6227 5.43756 26.7733 5.38153 26.886 5.27008C26.9974 5.15501 27.0529 5.0032 27.0529 4.81584V3.28565C27.0529 3.24769 27.0336 3.22842 26.9956 3.22842ZM26.6721 5.82492H26.3841C26.348 5.82492 26.3299 5.84179 26.3299 5.87673V6.18157C26.3299 6.21771 26.348 6.23519 26.3841 6.23519H26.6721C26.7065 6.23519 26.7239 6.21711 26.7239 6.18097V5.87673C26.7239 5.84179 26.7065 5.82492 26.6721 5.82492ZM28.2451 1.57894H27.7655V1.33315C27.7655 1.29399 27.7794 1.26085 27.8077 1.23374C27.8212 1.22055 27.8373 1.21018 27.8549 1.20325C27.8724 1.19632 27.8912 1.19296 27.9101 1.19338C27.9734 1.19338 28.0174 1.22109 28.0409 1.27832L28.068 1.33917C28.077 1.35845 28.0897 1.36749 28.1065 1.36749C28.1137 1.36754 28.1208 1.36631 28.1276 1.36387L28.2559 1.31327C28.2668 1.30905 28.2746 1.30061 28.2794 1.28676C28.2816 1.28162 28.2829 1.2761 28.283 1.27049C28.2829 1.26488 28.2817 1.25935 28.2794 1.25423L28.2541 1.19398C28.1891 1.04759 28.0746 0.974696 27.9107 0.974696C27.8618 0.973634 27.8131 0.982359 27.7676 1.00036C27.7221 1.01836 27.6806 1.04527 27.6457 1.07952C27.6106 1.11162 27.5827 1.15074 27.5639 1.19434C27.545 1.23794 27.5355 1.28503 27.536 1.33254V1.57894H27.4077C27.3764 1.57894 27.3613 1.5934 27.3613 1.62352V1.75546C27.3613 1.78497 27.3764 1.80004 27.4077 1.80004H28.2451C28.2752 1.80004 28.2897 1.78497 28.2897 1.75546V1.62352C28.2897 1.5934 28.2746 1.57894 28.2451 1.57894ZM27.9294 2.10848H27.6222C27.586 2.10848 27.5679 2.12716 27.5679 2.16451V5.2514C27.5679 5.28815 27.586 5.30683 27.6222 5.30683H27.9294C27.9637 5.30683 27.9806 5.28875 27.9806 5.2514V2.16451C27.9806 2.12716 27.9637 2.10848 27.9294 2.10848ZM30.6054 3.76037H31.444C31.4729 3.76037 31.4874 3.74531 31.4874 3.71579V3.58325C31.4874 3.55313 31.4729 3.53867 31.444 3.53867H30.9633V3.29468C30.9631 3.27583 30.9667 3.25713 30.9739 3.23973C30.9812 3.22233 30.9919 3.20659 31.0055 3.19348C31.019 3.18033 31.0351 3.17 31.0526 3.16307C31.0702 3.15615 31.089 3.15276 31.1079 3.15311C31.1741 3.15311 31.2175 3.18143 31.2404 3.23745L31.2675 3.30071C31.2759 3.31758 31.2892 3.32661 31.3073 3.32661C31.3151 3.32636 31.3228 3.32493 31.3302 3.3224L31.4567 3.27179C31.4664 3.26619 31.4741 3.25779 31.479 3.24769C31.4806 3.24264 31.4814 3.23735 31.4814 3.23203C31.4815 3.22592 31.4807 3.21983 31.479 3.21396L31.4519 3.15371C31.3874 3.00672 31.2729 2.93443 31.1085 2.93443C31.0597 2.93337 31.0112 2.94204 30.9657 2.95993C30.9203 2.97782 30.879 3.00458 30.844 3.03865C30.8092 3.0715 30.7816 3.11122 30.7629 3.15529C30.7442 3.19936 30.7349 3.24683 30.7356 3.29468V3.53807H30.6054C30.5747 3.53807 30.559 3.55313 30.559 3.58265V3.71519C30.559 3.74531 30.5747 3.76037 30.6054 3.76037ZM36.6991 2.72478H36.9895C37.0232 2.72478 37.0407 2.70731 37.0407 2.67297V2.36693C37.0407 2.33259 37.0232 2.31512 36.9895 2.31512H36.6991C36.6642 2.31512 36.6473 2.33259 36.6473 2.36693V2.67237C36.6473 2.70671 36.6642 2.72478 36.6991 2.72478Z" fill="black"/>
<path d="M38.6556 3.147H38.3134C38.276 3.147 38.2574 3.16507 38.2574 3.20303V4.69948C38.2574 4.75913 38.2453 4.80009 38.2212 4.82359C38.1989 4.84527 38.158 4.85672 38.0965 4.85672H37.2435C37.1459 4.85672 37.0832 4.84166 37.0555 4.81154C37.0434 4.80009 37.0368 4.78081 37.0368 4.7531V3.20062C37.0368 3.16206 37.0175 3.14278 36.9808 3.14278H36.638C36.6013 3.14278 36.582 3.16206 36.582 3.20062V4.69527C36.582 4.75732 36.5705 4.79889 36.5488 4.81937C36.5247 4.84286 36.4862 4.85552 36.432 4.85672H32.6776C32.5788 4.85672 32.5149 4.84166 32.4878 4.81154C32.4764 4.8031 32.4709 4.78383 32.4709 4.7531V2.16443C32.4709 2.12828 32.4523 2.1084 32.4143 2.1084H32.0727C32.0336 2.1084 32.0137 2.12768 32.0137 2.16443V4.69527C32.0137 4.75913 32.0034 4.80069 31.9806 4.82178C31.9565 4.84527 31.9173 4.85672 31.8619 4.85672H30.4208C30.3499 4.85726 30.2795 4.84369 30.2138 4.8168C30.1482 4.78991 30.0885 4.75024 30.0383 4.70009C29.9875 4.65069 29.9473 4.59145 29.9201 4.52598C29.893 4.46052 29.8795 4.39021 29.8805 4.31935C29.8802 4.21627 29.909 4.11521 29.9636 4.02777C30.0173 3.94005 30.0946 3.8691 30.1865 3.82294L30.3395 3.74462C30.3618 3.73317 30.3726 3.71872 30.3726 3.70064C30.3723 3.69015 30.3696 3.67986 30.3648 3.67052L30.21 3.3681C30.2067 3.36129 30.2021 3.35522 30.1964 3.35025C30.1907 3.34528 30.184 3.34152 30.1769 3.33918C30.1709 3.33615 30.1643 3.3347 30.1576 3.33496C30.1487 3.33538 30.1401 3.33831 30.1329 3.3434L29.9787 3.41991C29.81 3.50485 29.6762 3.62895 29.5756 3.79161C29.4762 3.95427 29.4256 4.13018 29.4256 4.31935C29.4256 4.59346 29.5232 4.8266 29.7172 5.01998C29.9124 5.21156 30.1467 5.30674 30.4208 5.30674H31.8552C32.0293 5.30674 32.1715 5.25794 32.2812 5.15854C32.3992 5.25794 32.5631 5.30674 32.7716 5.30674H36.4235C36.5976 5.30674 36.7392 5.25794 36.8489 5.15854C36.9669 5.25794 37.1302 5.30674 37.3368 5.30674H38.0971C38.2833 5.30674 38.4333 5.25252 38.5453 5.14408C38.6568 5.03083 38.7122 4.88263 38.7122 4.69948V3.20303C38.7122 3.16568 38.6935 3.147 38.6556 3.147ZM2.64724 2.1084H2.31289C2.27494 2.1084 2.25566 2.12768 2.25566 2.16563V5.1242C2.25697 5.19617 2.24377 5.26766 2.21686 5.33442C2.18995 5.40118 2.14988 5.46184 2.09902 5.51278C2.05103 5.56389 1.99294 5.60448 1.92844 5.63196C1.86393 5.65945 1.79442 5.67322 1.72431 5.67242C1.6541 5.67331 1.58447 5.65957 1.51985 5.63208C1.45524 5.6046 1.39705 5.56397 1.34899 5.51278C1.29783 5.462 1.25748 5.4014 1.23035 5.33462C1.20323 5.26784 1.18989 5.19627 1.19115 5.1242V4.03379C1.19115 3.99463 1.17308 3.97475 1.13814 3.97475H0.801372C0.762816 3.97475 0.744141 3.99463 0.744141 4.03439V5.12481C0.744141 5.40253 0.839326 5.64049 1.0315 5.83689C1.22248 6.03388 1.45321 6.13208 1.72431 6.13208C1.9936 6.13208 2.22433 6.03388 2.41711 5.83689C2.60869 5.64049 2.70447 5.40313 2.70447 5.1242V2.16623C2.70447 2.12768 2.6852 2.1084 2.64724 2.1084ZM38.3309 5.82484H38.0435C38.0073 5.82484 37.9893 5.84171 37.9893 5.87665V6.18148C37.9893 6.21763 38.0073 6.2351 38.0435 6.2351H38.3309C38.3652 6.2351 38.3833 6.21703 38.3833 6.18088V5.87665C38.3833 5.84171 38.3652 5.82484 38.3309 5.82484Z" fill="black"/>
</g>
</svg>
