<svg width="92" height="32" viewBox="0 0 92 32" fill="none" xmlns="http://www.w3.org/2000/svg">
<path d="M81.7373 22.8998L74.5557 12.1775V24.8517H71.4746V6.89893H74.6898L81.7766 18.5197L88.8109 6.89893H91.9993V24.8517H88.8914V12.1775L81.7373 22.8998Z" fill="black"/>
<path d="M8.81081 24.8597V16.459H5.70117V24.8597" fill="black"/>
<path d="M23.6624 15.301V6.90137H20.5527V15.301" fill="black"/>
<path d="M11.16 6.90137H5.70117V12.2557L23.6617 24.8596L11.16 6.90137Z" fill="black"/>
<path d="M3.10964 6.89893H0V24.8595H3.10964V6.89893Z" fill="black"/>
<path d="M49.4104 6.89893H46.3008V24.8595H49.4104V6.89893Z" fill="black"/>
<path d="M60.5622 25.1007C65.0653 25.1007 68.6574 22.7148 68.6574 18.0245V6.89893H65.5477V18.1577C65.5477 21.0526 63.5099 22.4736 60.5622 22.4736C57.6145 22.4736 55.5491 21.0526 55.5491 18.1577V6.89893H52.4395V18.0233C52.4395 22.7148 56.058 25.0996 60.5622 25.0996V25.1007Z" fill="black"/>
<path d="M34.5587 6.89893H26.5703V24.8595H34.5587C40.7504 24.8595 43.8336 21.8843 43.8336 15.8798C43.8336 9.87531 40.7515 6.89893 34.5587 6.89893ZM34.6127 22.3392H29.68V9.41926H34.6127C38.6332 9.41926 40.6171 11.5904 40.6171 15.8798C40.6171 20.1692 38.6332 22.3403 34.6127 22.3403V22.3392Z" fill="black"/>
</svg>
