<svg width="140" height="32" viewBox="0 0 140 32" fill="none" xmlns="http://www.w3.org/2000/svg">
<path d="M13.778 27.387H12.082V26.8618H16.0494V27.387H14.3534V31.9097H13.7747V27.387H13.778Z" fill="black"/>
<path d="M18.127 26.8618H18.6956V29.1064H21.6093V26.8618H22.178V31.9097H21.6093V29.6383H18.6956V31.9097H18.127V26.8618Z" fill="black"/>
<path d="M24.3965 29.4009V29.3876C24.3965 27.996 25.4435 26.7783 26.979 26.7783C28.5144 26.7783 29.5447 27.9826 29.5447 29.3742V29.3876C29.5447 30.7792 28.4977 32.0001 26.9622 32.0001C25.4268 32.0001 24.3965 30.7959 24.3965 29.4043V29.4009ZM28.9526 29.4009V29.3876C28.9526 28.2402 28.1163 27.3035 26.9622 27.3035C25.8081 27.3035 24.9852 28.2268 24.9852 29.3742V29.3876C24.9852 30.535 25.8215 31.4716 26.9756 31.4716C28.1297 31.4716 28.9526 30.5483 28.9526 29.4009Z" fill="black"/>
<path d="M31.6791 29.796V26.8589H32.2478V29.7592C32.2478 30.8497 32.8232 31.4619 33.7899 31.4619C34.7567 31.4619 35.312 30.8999 35.312 29.796V26.8589H35.8807V29.7525C35.8807 31.2243 35.0377 31.987 33.7732 31.987C32.5087 31.987 31.6758 31.221 31.6758 29.796H31.6791Z" fill="black"/>
<path d="M38.0117 29.4009V29.3876C38.0117 28.0027 39.0287 26.7783 40.544 26.7783C41.3937 26.7783 41.9222 27.0225 42.4273 27.4474L42.0594 27.8789C41.6713 27.541 41.2365 27.3002 40.5239 27.3002C39.4067 27.3002 38.6038 28.2469 38.6038 29.3708V29.3842C38.6038 30.5885 39.3765 31.4816 40.6009 31.4816C41.1763 31.4816 41.7115 31.2575 42.0594 30.9765V29.7221H40.5239V29.2103H42.608V31.2241C42.1397 31.6422 41.4338 31.9968 40.5808 31.9968C38.9952 31.9968 38.0117 30.8427 38.0117 29.4009Z" fill="black"/>
<path d="M44.9023 26.8618H45.471V29.1064H48.3847V26.8618H48.9533V31.9097H48.3847V29.6383H45.471V31.9097H44.9023V26.8618Z" fill="black"/>
<path d="M52.7272 27.387H51.0312V26.8618H54.9986V27.387H53.3026V31.9097H52.7272V27.387Z" fill="black"/>
<path d="M57.0762 26.8618H60.7023V27.387H57.6449V29.1901H60.3779V29.7086H57.6449V31.9097H57.0762V26.8618Z" fill="black"/>
<path d="M62.7358 29.796V26.8589H63.3044V29.7592C63.3044 30.8497 63.8798 31.4619 64.8466 31.4619C65.8133 31.4619 66.3686 30.8999 66.3686 29.796V26.8589H66.9373V29.7525C66.9373 31.2243 66.0943 31.987 64.8298 31.987C63.5654 31.987 62.7324 31.221 62.7324 29.796H62.7358Z" fill="black"/>
<path d="M69.2944 26.8618H69.863V31.3845H72.7031V31.9097H69.291V26.8618H69.2944Z" fill="black"/>
<path d="M77.6094 31.174L77.964 30.7559C78.4892 31.2309 78.9943 31.4684 79.6934 31.4684C80.3926 31.4684 80.8174 31.1071 80.8174 30.6087V30.5953C80.8174 30.127 80.5665 29.8594 79.5061 29.6352C78.3453 29.3844 77.8101 29.0064 77.8101 28.1768V28.1634C77.8101 27.3706 78.5092 26.7852 79.4693 26.7852C80.2052 26.7852 80.7304 26.9926 81.2422 27.404L80.9111 27.8422C80.4427 27.4609 79.9744 27.2936 79.4526 27.2936C78.7969 27.2936 78.3788 27.6549 78.3788 28.1098V28.1232C78.3788 28.5982 78.6397 28.8659 79.7503 29.1034C80.8743 29.3476 81.3961 29.759 81.3961 30.5318V30.5451C81.3961 31.4115 80.6736 31.9735 79.6733 31.9735C78.8738 31.9735 78.2149 31.7059 77.6094 31.164V31.174Z" fill="black"/>
<path d="M83.5678 26.8622H87.2174V27.3807H84.1365V29.1035H86.8929V29.622H84.1365V31.3883H87.2508V31.9068H83.5645V26.8589L83.5678 26.8622Z" fill="black"/>
<path d="M89.4062 26.8618H89.9749V31.3845H92.8183V31.9097H89.4062V26.8618Z" fill="black"/>
<path d="M94.877 26.8618H98.5065V27.387H95.449V29.1901H98.182V29.7086H95.449V31.9097H94.8803V26.8618H94.877Z" fill="black"/>
<path d="M100.371 29.4507H102.375V30.0361H100.371V29.4507Z" fill="black"/>
<path d="M104.35 29.4009V29.3876C104.35 27.9592 105.417 26.7783 106.902 26.7783C107.819 26.7783 108.367 27.1028 108.872 27.5778L108.484 27.996C108.059 27.5912 107.581 27.3035 106.899 27.3035C105.781 27.3035 104.945 28.2134 104.945 29.3742V29.3876C104.945 30.555 105.788 31.4716 106.899 31.4716C107.591 31.4716 108.046 31.204 108.528 30.7424L108.902 31.1103C108.377 31.6456 107.798 31.9968 106.882 31.9968C105.427 31.9968 104.35 30.8494 104.35 29.4009Z" fill="black"/>
<path d="M112.773 26.8252H113.308L115.609 31.9099H114.997L114.405 30.5751H111.659L111.06 31.9099H110.475L112.776 26.8252H112.773ZM114.178 30.0633L113.03 27.4875L111.876 30.0633H114.178Z" fill="black"/>
<path d="M117.611 26.8618H119.782C120.401 26.8618 120.9 27.0491 121.217 27.3669C121.462 27.6111 121.605 27.9657 121.605 28.3638V28.3772C121.605 29.2135 121.03 29.7052 120.234 29.8491L121.786 31.913H121.087L119.622 29.9528H118.18V31.913H117.611V26.8652V26.8618ZM119.732 29.4376C120.488 29.4376 121.03 29.0496 121.03 28.3973V28.3839C121.03 27.765 120.555 27.3904 119.739 27.3904H118.18V29.4376H119.729H119.732Z" fill="black"/>
<path d="M123.83 26.8622H127.479V27.3807H124.398V29.1035H127.155V29.622H124.398V31.3883H127.513V31.9068H123.826V26.8589L123.83 26.8622Z" fill="black"/>
<path d="M0 16.9397V0.481445H2.58916V7.80404L11.3201 0.481445H14.7188L7.80429 6.33551L15.7624 16.9397H12.8655L5.98786 7.84084L2.58916 10.7177V16.9364H0V16.9397Z" fill="black"/>
<path d="M20.7734 16.94V0.404785H23.3994V16.94H20.7734Z" fill="black"/>
<path d="M31.0586 16.9399V0.444824H33.2028L39.9634 10.1024L46.724 0.444824H48.8683V16.9432H46.2992V5.08124L39.9634 14.2571L33.6478 5.08124V16.9432H31.0586V16.9399Z" fill="black"/>
<path d="M56.5254 16.94V0.404785H59.1514V16.94H56.5254Z" fill="black"/>
<path d="M69.3978 9.73421V16.9397H66.8086V0.481445H78.1688C79.8548 0.481445 81.1761 0.886212 82.1295 1.69909C83.0829 2.51197 83.5579 3.63595 83.5579 5.08106C83.5579 6.25188 83.1799 7.26881 82.4272 8.12518C81.6745 8.98154 80.6911 9.50673 79.4801 9.70076L84.0596 16.9464H81.2597L76.5865 9.7409H69.4011L69.3978 9.73421ZM69.3978 7.32233H78.1688C79.0586 7.32233 79.7377 7.12831 80.206 6.74362C80.6743 6.35892 80.9118 5.80362 80.9118 5.08106C80.9118 4.35851 80.6777 3.8099 80.206 3.42855C79.7343 3.05054 79.0553 2.85987 78.1688 2.85987H69.3978V7.32233Z" fill="black"/>
<path d="M90.2305 16.94V0.404785H92.8564V16.94H90.2305Z" fill="black"/>
<path d="M117.977 12.9057C117.037 14.3876 115.803 15.5183 114.277 16.2944C112.752 17.0738 111.016 17.4618 109.072 17.4618C106.175 17.4618 103.79 16.6423 101.913 14.9998C100.04 13.3573 99.1035 11.2732 99.1035 8.75098C99.1035 6.22872 100.04 4.13798 101.913 2.48212C103.787 0.826259 106.172 0 109.072 0C110.875 0 112.511 0.337863 113.979 1.01359C115.448 1.68931 116.632 2.64604 117.535 3.88375L115.488 5.31214C114.806 4.37215 113.906 3.64624 112.792 3.13778C111.678 2.62931 110.437 2.37508 109.072 2.37508C106.961 2.37508 105.212 2.97721 103.827 4.18147C102.442 5.38574 101.75 6.89441 101.75 8.71084C101.75 10.5273 102.445 12.036 103.837 13.2402C105.229 14.4445 106.971 15.0466 109.072 15.0466C110.541 15.0466 111.835 14.7556 112.956 14.1769C114.077 13.5981 115.06 12.6949 115.913 11.474L117.98 12.9024L117.977 12.9057Z" fill="black"/>
<path d="M121.133 16.9399L129.516 0.444824H131.138L139.598 16.9432H136.835L134.691 12.7517H125.98L123.856 16.9432H121.133V16.9399ZM127.101 10.5673H133.553L130.345 4.25164L127.101 10.5673Z" fill="black"/>
</svg>
