<svg width="92" height="32" viewBox="0 0 92 32" fill="none" xmlns="http://www.w3.org/2000/svg">
<path d="M60.915 3.33398H56.8066V28.7192H60.915V3.33398Z" fill="black"/>
<path d="M72.2422 3.33398V6.86797H79.6131V28.6014H83.6305V3.33398H72.2422Z" fill="black"/>
<path d="M45.1551 5.6315C43.5538 4.12955 41.3807 3.36377 38.6929 3.36377H28.752V28.6016H32.7997V19.7965H38.4487C41.2583 19.7965 43.5235 19.0603 45.1247 17.5879C45.9498 16.8021 46.5967 15.8558 47.0234 14.8103C47.4502 13.7648 47.6473 12.6434 47.6021 11.5187C47.6307 10.4254 47.4282 9.33801 47.0071 8.32458C46.5861 7.31116 45.9556 6.39342 45.1551 5.62871M43.3422 11.5187C43.3845 12.1487 43.2815 12.78 43.0411 13.366C42.8006 13.9521 42.4286 14.4781 41.9525 14.9052C40.8397 15.7649 39.4419 16.1947 38.0255 16.1128H32.7391V7.04465H38.2674C39.6075 6.98024 40.9233 7.41141 41.9525 8.25225C42.4221 8.65905 42.7911 9.16454 43.0318 9.73069C43.2725 10.2968 43.3786 10.9089 43.3422 11.5209" fill="black"/>
<path d="M9.48626 15.6149L19.8778 3.33447H15.0741L6.25402 13.7298L6.13336 13.8772H4.47206V3.33447H0.484375V21.2083H4.47206V17.4101H6.19398L7.88559 19.4717L15.3772 28.632H19.9991L9.48626 15.6149Z" fill="black"/>
<path d="M3.11065 24.884C2.53783 24.7257 1.92416 24.795 1.40349 25.0769C0.882828 25.3588 0.497419 25.8304 0.331337 26.3887C0.252577 26.6641 0.230723 26.952 0.267051 27.2356C0.303379 27.5193 0.397164 27.793 0.542932 28.0409C0.839308 28.5464 1.32771 28.9175 1.90228 29.0737C2.08716 29.1315 2.28003 29.1613 2.47415 29.162C2.7663 29.166 3.05635 29.1132 3.32743 29.0067C3.59851 28.9003 3.84523 28.7423 4.05323 28.5419C4.26123 28.3415 4.42638 28.1027 4.53906 27.8394C4.65174 27.5761 4.70972 27.2935 4.70961 27.0082C4.70395 26.5352 4.54635 26.0758 4.25904 25.695C3.97174 25.3142 3.56925 25.0311 3.10837 24.8857" fill="black"/>
<path d="M90.1868 2.92097C89.614 2.76281 89.0004 2.83224 88.4798 3.11411C87.9592 3.39598 87.5737 3.86744 87.4075 4.42572C87.3287 4.70105 87.3069 4.98894 87.3432 5.2726C87.3796 5.55627 87.4733 5.83003 87.6191 6.07793C87.9106 6.57548 88.3862 6.94505 88.9481 7.1107C89.133 7.16851 89.3259 7.19828 89.52 7.19895C90.0023 7.19869 90.4715 7.04632 90.858 6.76451C91.2444 6.4827 91.5273 6.08653 91.6645 5.63499C91.8245 5.08342 91.7598 4.49279 91.4839 3.98679C91.208 3.48078 90.7424 3.09865 90.1845 2.92041" fill="black"/>
</svg>
