<svg width="70" height="31" viewBox="0 0 70 31" fill="none" xmlns="http://www.w3.org/2000/svg">
<path d="M28.3134 30.9845C25.961 30.8588 24.2056 29.8897 23.1787 28.1532C22.4702 26.85 22.2627 25.3326 22.5955 23.887C22.8198 22.9581 23.2334 22.0856 23.8104 21.3239C24.3875 20.5623 25.1156 19.9279 25.9491 19.4606C27.1313 18.7492 28.3946 18.1821 29.7118 17.7712C30.17 17.6103 30.5653 17.462 30.5917 17.4413C30.6281 17.4124 30.6332 17.3093 30.6149 16.9762C30.5868 15.8007 30.7125 14.6266 30.9889 13.4837C31.3268 11.8724 32.1962 10.4214 33.4576 9.36337C34.3417 8.70732 35.363 8.26016 36.4448 8.05549C37.1579 7.9431 37.8842 7.9431 38.5973 8.05549C40.9975 8.5388 42.345 10.3891 41.8145 12.4737C41.6453 13.0309 41.3874 13.5572 41.0509 14.0324C40.0889 15.2122 38.8789 16.1658 37.5069 16.8254C37.3026 16.9341 36.6327 17.2653 36.0199 17.5569C35.4071 17.8485 34.8886 18.11 34.8616 18.1339C34.8277 18.1678 34.8358 18.2677 34.9025 18.6027C35.2013 20.1344 35.7763 21.599 36.5994 22.9248C36.8691 23.3913 37.1645 23.8424 37.4843 24.2761C37.5635 24.3251 37.8878 23.8016 38.0989 23.2831C38.355 22.6801 38.4703 22.0267 38.4358 21.3725C38.3778 21.061 38.2289 20.7736 38.0078 20.5466C37.9411 20.4873 37.8818 20.4202 37.8312 20.3468C37.8312 20.3323 38.6482 20.3241 39.6463 20.3292L41.462 20.3386L41.4519 20.5686C41.4077 21.0625 41.3236 21.552 41.2005 22.0324C40.8171 23.4414 40.0836 24.7306 39.0681 25.78C38.9718 25.875 38.89 25.9836 38.8255 26.1024C38.947 26.2699 39.0868 26.4233 39.2422 26.56C41.0168 28.164 43.0546 29.45 45.2662 30.3617C45.3957 30.4028 45.5182 30.4634 45.6294 30.5414C45.6294 30.5647 44.4353 30.5798 42.1508 30.586L38.6727 30.5948L38.4748 30.4836C37.7062 29.9656 36.9841 29.3819 36.3166 28.7389C36.2021 28.6215 36.0736 28.5187 35.9338 28.4329C35.7763 28.5056 35.6261 28.5932 35.4851 28.6943C34.3684 29.4307 33.1652 30.0266 31.9027 30.4685C30.7549 30.8774 29.5368 31.052 28.3203 30.982L28.3134 30.9845ZM31.2415 27.9716C31.8396 27.856 32.4251 27.683 32.99 27.4549C33.4628 27.2825 33.9156 27.0596 34.3406 26.79C34.2632 26.6098 34.1622 26.4408 34.0402 26.2872C33.1394 24.9626 32.3836 23.5449 31.7858 22.0588C31.5715 21.5227 31.1718 20.3355 31.0945 20.0099C31.084 19.9319 31.05 19.8589 30.9971 19.8006C30.5252 19.9697 30.0805 20.2068 29.6772 20.5045C27.6372 21.857 26.6605 23.5081 26.8761 25.2332C26.9296 25.9024 27.2042 26.5348 27.6567 27.0307C28.1252 27.4789 28.7002 27.8005 29.3274 27.965C29.9546 28.1295 30.6133 28.1315 31.2415 27.9709V27.9716ZM34.7045 15.9757C35.6897 15.3267 36.5727 14.5348 37.3246 13.6258C38.0622 12.8361 38.5232 11.828 38.6382 10.7536C38.6637 10.5998 38.6536 10.4422 38.6087 10.2929C38.5638 10.1436 38.4854 10.0065 38.3793 9.89227C38.2732 9.77801 38.1424 9.68957 37.9968 9.63373C37.8513 9.57789 37.6949 9.55614 37.5396 9.57014C36.4523 9.57014 35.277 10.861 34.7642 12.617C34.518 13.4072 34.4087 14.2336 34.4412 15.0606C34.4412 15.8864 34.4531 16.0706 34.5153 16.0706C34.5814 16.0451 34.6448 16.0131 34.7045 15.975V15.9757ZM52.688 30.9638C51.2132 30.8555 49.7631 30.5265 48.386 29.9877C46.779 29.4316 45.4054 28.3517 44.4856 26.9214C44.1217 26.33 43.8102 25.708 43.5548 25.0623C42.7015 22.4629 42.5235 19.6891 43.0376 17.002C43.5054 14.0857 44.6012 11.3059 46.2491 8.85492C47.3948 7.26148 48.7788 5.85376 50.3525 4.68116C53.727 2.23372 57.8019 0.942132 61.9701 0.998862C63.6363 0.987405 65.299 1.15364 66.9301 1.49474C67.9562 1.68462 68.9651 1.95787 69.9468 2.31177C69.965 2.35828 68.8042 6.07828 68.7558 6.12793C68.6107 6.06127 68.4772 5.97172 68.3605 5.86271C66.9201 4.6506 65.1861 3.83886 63.3326 3.50903C62.6329 3.42541 61.9257 3.42541 61.2259 3.50903C58.8308 3.87984 56.6097 5.4102 54.6382 8.04858C53.9248 9.02409 53.2912 10.0554 52.7433 11.1326C52.0103 12.5663 51.4168 14.0671 50.9709 15.6143C49.3237 21.1116 49.2401 24.9523 50.7227 27.032C51.0336 27.4615 51.4267 27.8251 51.8791 28.1016C52.3316 28.3781 52.8345 28.5621 53.3586 28.6428C54.1543 28.7599 54.9651 28.7227 55.7468 28.5334C55.7719 28.5089 56.5425 26.098 57.4588 23.1762C58.9672 18.3771 59.1274 17.8341 59.1444 17.5638C59.1705 17.2156 59.0977 16.867 58.9345 16.5583C58.7193 16.2048 58.4206 15.9095 58.0647 15.6985C57.9721 15.6542 57.8861 15.5975 57.8089 15.5301C57.8089 15.5156 60.3347 15.5037 63.4237 15.5037C66.5127 15.5037 69.0393 15.5156 69.0386 15.5301C68.9449 15.5981 68.8426 15.6537 68.7344 15.6954C67.9127 16.0447 67.2436 16.6774 66.849 17.4784C66.7673 17.6481 66.0602 19.8434 64.9994 23.224L63.2811 28.6956L62.7846 28.9331C60.5828 29.9547 58.2324 30.619 55.8216 30.9009C55.3685 30.9562 53.0669 31.0021 52.688 30.9638V30.9638ZM0.99821 30.5634C0.986897 30.5452 1.06106 30.4823 1.16413 30.4233C1.83231 30.0105 2.37938 29.4283 2.7498 28.7358C2.83401 28.5598 10.5367 4.02753 10.7064 3.39339C10.743 3.22233 10.7615 3.04792 10.7617 2.873C10.7721 2.63015 10.7278 2.38806 10.6321 2.16462C10.5363 1.94118 10.3916 1.74211 10.2087 1.5821C10.1339 1.51943 10.0685 1.44641 10.0145 1.36527C10.0145 1.31688 23.464 1.32065 24.0818 1.36967C25.3642 1.46124 26.6178 1.79409 27.7767 2.35073C28.5818 2.717 29.2858 3.27354 29.828 3.9724C30.3702 4.67126 30.7343 5.49147 30.889 6.36235C30.9818 7.06743 30.993 7.78087 30.9223 8.48852C30.5939 10.7263 29.6907 12.8407 28.3009 14.625C26.1326 17.3225 22.586 19.0471 18.2332 19.5216C16.7886 19.6734 15.3339 19.7049 13.884 19.6158C13.6637 19.5936 13.4424 19.5825 13.221 19.5825C13.177 19.6265 10.4003 28.5366 10.3683 28.7358C10.3293 29.0565 10.3799 29.3818 10.5145 29.6755C10.649 29.9693 10.8623 30.22 11.1306 30.4C11.2381 30.4717 11.3192 30.5446 11.306 30.5628C11.2783 30.6074 1.02712 30.6074 0.998839 30.5628L0.99821 30.5634ZM16.2704 17.3294C17.2678 17.1561 18.2131 16.7598 19.0357 16.1699C19.6405 15.6904 20.1887 15.1437 20.6698 14.5402C21.6281 13.1949 22.3284 11.6833 22.735 10.0824C23.0381 9.10663 23.199 8.0923 23.2126 7.07066C23.2383 6.51895 23.1552 5.96758 22.9682 5.44791C22.8389 5.09907 22.6386 4.78089 22.3799 4.51355C22.1213 4.24622 21.8099 4.03555 21.4655 3.89492C20.7226 3.63023 19.9308 3.53155 19.1457 3.60582L18.2187 3.6165L16.0819 10.4192C14.9072 14.1606 13.9525 17.2402 13.9601 17.2622C14.0628 17.3109 14.174 17.3391 14.2875 17.3451C14.4597 17.3684 14.6244 17.3935 14.6539 17.4004C15.1921 17.4157 15.7306 17.3921 16.2654 17.33L16.2704 17.3294Z" fill="#000"/>
</svg>
