<svg width="75" height="30" viewBox="0 0 75 30" fill="none" xmlns="http://www.w3.org/2000/svg">
<path d="M32.4497 11.5191C31.9486 11.8895 31.4514 12.2624 30.9478 12.6289C28.7498 14.2257 26.551 15.8216 24.3514 17.4165C23.8808 17.7583 23.4098 18.1001 22.9525 18.4568C22.913 18.4943 22.8831 18.5408 22.8655 18.5923C22.8478 18.6438 22.8428 18.6988 22.8509 18.7527C23.0936 19.5301 23.3605 20.3006 23.6091 21.0755C23.9104 22.0087 24.198 22.9469 24.4969 23.8796C24.7958 24.8124 25.114 25.7422 25.4188 26.6744C25.7605 27.7211 26.0992 28.768 26.4349 29.815C26.442 29.875 26.442 29.9356 26.4349 29.9956C26.1715 29.8111 25.9417 29.6503 25.7123 29.489C23.8659 28.1526 22.0201 26.8165 20.175 25.4808C19.1051 24.7049 18.0342 23.9329 16.9732 23.1437C16.9386 23.1094 16.8975 23.0823 16.8522 23.064C16.807 23.0457 16.7586 23.0366 16.7098 23.0371C16.6611 23.0377 16.6129 23.0479 16.5681 23.0672C16.5233 23.0865 16.4828 23.1145 16.4489 23.1496C14.6669 24.4548 12.8795 25.7537 11.0867 27.0464C9.77627 27.9947 8.46453 28.9408 7.15147 29.8846C7.10955 29.9147 7.0617 29.9369 6.95417 30C7.03951 29.7095 7.0992 29.4816 7.1717 29.2567C7.43017 28.4452 7.66742 27.6259 7.96584 26.8283C8.11118 26.5192 8.30408 26.2348 8.53753 25.9854C10.6525 23.4215 12.9627 21.0251 15.4476 18.8178C17.1059 17.3287 18.818 15.9022 20.6145 14.5802C20.6812 14.5111 20.7399 14.4346 20.7896 14.3523C20.3457 14.4554 19.9165 14.5225 19.5116 14.6577C18.2898 15.0597 17.064 15.4553 15.8614 15.914C14.1642 16.5811 12.5286 17.3955 10.9732 18.3477C10.5959 18.5732 10.6028 18.5756 10.2334 18.3043C8.17384 16.795 6.11432 15.2867 4.0548 13.7797C3.09229 13.075 2.12978 12.3701 1.16726 11.6651C1.08983 11.6103 1.03002 11.5342 0.995117 11.4461H1.42228C5.16545 11.4461 8.90879 11.4469 12.6523 11.4485C12.8659 11.4485 12.9852 11.4081 13.0553 11.1827C13.5157 9.73578 13.9834 8.29185 14.4586 6.85087C14.8261 5.72476 15.2034 4.6031 15.5709 3.47797C15.9241 2.40464 16.2708 1.33032 16.6211 0.256986C16.6428 0.191382 16.6738 0.130714 16.7315 0C16.9328 0.617067 17.1094 1.16607 17.2904 1.71408C17.5538 2.51168 17.8216 3.30829 18.0836 4.10737C18.4341 5.18037 18.783 6.25403 19.1303 7.32835C19.4514 8.31487 19.7769 9.30139 20.0985 10.2879C20.1923 10.5774 20.2919 10.866 20.3679 11.1605C20.3723 11.2054 20.386 11.2489 20.4081 11.2883C20.4301 11.3276 20.46 11.3621 20.4959 11.3894C20.5318 11.4168 20.5729 11.4364 20.6167 11.4472C20.6606 11.458 20.7061 11.4596 20.7506 11.452C24.55 11.4444 28.3489 11.4431 32.1474 11.448C32.2519 11.4427 32.3557 11.4683 32.4458 11.5215" fill="#000"/>
<path d="M45.8078 14.3002C46.0827 14.0731 46.2737 13.7606 46.3504 13.4123C46.4109 13.2138 46.4052 13.0009 46.334 12.8059C46.2628 12.6109 46.13 12.4444 45.9558 12.3316C45.7537 12.1829 45.5279 12.0697 45.2879 11.9967C44.8067 11.8532 44.3153 11.7466 43.818 11.678C42.7714 11.534 41.7056 11.6386 40.707 11.9833C40.1145 12.1664 39.5792 12.499 39.1526 12.949C38.726 13.399 38.4225 13.9513 38.2713 14.5527C38.1752 14.9276 38.1218 15.3122 38.112 15.6991C38.057 16.3641 38.1994 17.0305 38.5213 17.615C38.8432 18.1995 39.3303 18.6761 39.9217 18.9852C40.2706 19.1801 40.6303 19.355 40.999 19.509C41.6314 19.7714 42.2815 19.9968 42.9104 20.2632C43.2244 20.3985 43.5258 20.5614 43.8111 20.75C44.0135 20.9029 44.1735 21.1049 44.276 21.337C44.3785 21.569 44.42 21.8234 44.3967 22.076C44.3733 22.3286 44.2858 22.5711 44.1425 22.7804C43.9992 22.9897 43.8048 23.1589 43.5778 23.2721C43.2428 23.4198 42.8855 23.5107 42.5207 23.5409C41.7214 23.6041 40.9171 23.5424 40.1368 23.3579C39.5942 23.2356 39.057 23.0866 38.4858 22.9406C38.2308 23.6006 37.9743 24.2625 37.7114 24.9417C37.852 25.0009 37.9536 25.0503 38.0602 25.0858C39.5466 25.592 41.1174 25.8041 42.685 25.7102C43.4863 25.6752 44.2742 25.4912 45.0082 25.1677C45.5099 24.9556 45.9554 24.6299 46.3096 24.2161C46.6638 23.8024 46.917 23.3121 47.0493 22.7837C47.1095 22.5404 47.153 22.2931 47.1795 22.0438C47.3051 21.3706 47.2211 20.675 46.9388 20.0511C46.6566 19.4271 46.1896 18.9047 45.6011 18.5545C45.4888 18.476 45.372 18.404 45.2514 18.339C44.6748 18.0623 44.1011 17.7816 43.5171 17.5236C43.0159 17.3026 42.495 17.1261 41.9969 16.8997C41.6926 16.7683 41.4071 16.5975 41.1475 16.3916C40.9891 16.2557 40.8642 16.0853 40.7822 15.8934C40.7003 15.7016 40.6636 15.4934 40.6749 15.2851C40.6863 15.0768 40.7454 14.8739 40.8477 14.6921C40.95 14.5103 41.0927 14.3544 41.2649 14.2366C41.4563 14.1128 41.6651 14.0184 41.8844 13.9564C42.4506 13.8115 43.0397 13.778 43.6187 13.8577C44.3625 13.925 45.0966 14.0739 45.8078 14.3017" fill="#000"/>
<path d="M51.5972 15.1129V12.3413L49.05 12.7808C49.0234 13.6164 48.9977 14.4199 48.9706 15.2579H47.6018C47.4795 15.8671 47.365 16.4418 47.2407 17.0652H48.9829V17.4717C48.9829 18.9294 48.9829 20.3872 48.9829 21.8449C48.9829 22.3002 48.975 22.7565 49.0007 23.2113C48.999 23.8248 49.227 24.4169 49.6398 24.8709C50.0525 25.3249 50.6202 25.6081 51.2312 25.6647C52.0707 25.7848 52.9252 25.7469 53.7508 25.5528C54.2397 25.459 54.7173 25.3133 55.1753 25.1182C55.0061 24.5401 54.8413 23.9768 54.6692 23.3829C54.461 23.4248 54.2746 23.4608 54.0872 23.5018C53.6071 23.6103 53.1132 23.6446 52.6227 23.6034C52.3781 23.6078 52.1411 23.519 51.9598 23.3549C51.7784 23.1908 51.6664 22.9637 51.6465 22.72C51.6177 22.5517 51.6045 22.3811 51.6071 22.2104C51.6044 20.5939 51.6044 18.977 51.6071 17.3597C51.6071 17.2714 51.6214 17.1846 51.6322 17.0583H54.6278C54.7457 16.3979 54.8557 15.7759 54.973 15.1114H51.5972V15.1129Z" fill="#000"/>
<path d="M70.1249 16.2415C70.0349 15.9106 69.8441 15.6159 69.5788 15.3985C69.3136 15.1811 68.9872 15.0518 68.6451 15.0286C68.1813 14.9474 67.7052 14.971 67.2517 15.0976C67.0113 15.1668 66.7853 15.2784 66.5843 15.4271C66.3957 15.57 66.2681 15.7789 66.2271 16.0119C66.1861 16.2449 66.2347 16.4848 66.3633 16.6834C66.554 16.6601 66.7459 16.6482 66.9379 16.6479C67.0387 16.6429 67.1394 16.6592 67.2335 16.6956C67.3277 16.732 67.4131 16.7878 67.4843 16.8593C67.5554 16.9308 67.6108 17.0165 67.6468 17.1107C67.6828 17.205 67.6986 17.3058 67.6931 17.4066C67.701 17.5314 67.6985 17.6576 67.6985 17.7824C67.6985 20.1866 67.6985 22.5902 67.6985 24.9934V25.4319C68.6056 25.4269 69.4659 25.4457 70.3429 25.4195V18.0236C70.801 17.6885 71.3386 17.4786 71.9026 17.4149C72.4511 17.3484 73.0109 17.3607 73.5871 17.3385C73.8268 16.6213 74.0739 15.8829 74.3314 15.1154C73.5931 14.9222 72.8173 14.9245 72.0801 15.1219C71.3429 15.3194 70.6698 15.7052 70.1269 16.2415" fill="#000"/>
<path d="M66.0166 24.0167C65.7868 24.0167 65.5821 24.0295 65.3788 24.0142C65.2106 24.0164 65.0477 23.9551 64.9226 23.8427C64.7974 23.7304 64.719 23.575 64.7031 23.4075C64.6776 23.2503 64.6661 23.0912 64.6685 22.932C64.6666 20.5742 64.6666 18.2163 64.6685 15.8582V15.3768C64.0155 15.2545 63.391 15.1198 62.7606 15.0256C61.6984 14.8453 60.6125 14.8568 59.5544 15.0596C58.6265 15.2017 57.7634 15.6215 57.0787 16.2638C56.3941 16.906 55.92 17.7405 55.7189 18.6574C55.459 19.7227 55.407 20.828 55.5654 21.913C55.6407 22.5826 55.8379 23.2327 56.1475 23.8312C56.3785 24.2933 56.7128 24.6961 57.1245 25.0082C57.5362 25.3203 58.0142 25.5335 58.5215 25.6311C59.7429 25.8981 61.0203 25.6761 62.0799 25.0126L62.3759 24.8335C62.5085 25.0593 62.6944 25.2493 62.9172 25.3868C63.14 25.5244 63.3931 25.6054 63.6544 25.6227C64.0746 25.6638 64.4977 25.6651 64.9181 25.6267C65.252 25.602 65.5693 25.4713 65.8237 25.2538C66.0085 25.1117 66.1316 24.9041 66.1675 24.6738C66.2034 24.4435 66.1494 24.2083 66.0166 24.0167V24.0167ZM62.0306 23.1816C61.5055 23.464 60.9122 23.595 60.317 23.5599C59.877 23.5825 59.4432 23.4483 59.0927 23.1812C58.7422 22.9142 58.4978 22.5316 58.4027 22.1014C58.0774 21.0621 58.0404 19.9539 58.2956 18.8952C58.4034 18.3388 58.7058 17.839 59.1488 17.4854C59.5917 17.1319 60.1462 16.9478 60.7126 16.9661C60.9977 16.9577 61.2838 16.972 61.5689 16.9912C61.7237 17.0109 61.8772 17.0397 62.0286 17.0775L62.0306 23.1816Z" fill="#000"/>
</svg>
